<?xml version="1.0" encoding="UTF-8" standalone="no"?>
<svg
   version="1.1"
   viewBox="0 0 1920 1080"
   fill="none"
   stroke="none"
   stroke-linecap="square"
   stroke-miterlimit="10"
   id="svg675"
   sodipodi:docname="slide_01.svg"
   inkscape:version="1.2.2 (b0a8486541, 2022-12-01)"
   width="1920"
   height="1080"
   xmlns:inkscape="http://www.inkscape.org/namespaces/inkscape"
   xmlns:sodipodi="http://sodipodi.sourceforge.net/DTD/sodipodi-0.dtd"
   xmlns="http://www.w3.org/2000/svg"
   xmlns:svg="http://www.w3.org/2000/svg">
  <defs
     id="defs679" />
  <sodipodi:namedview
     id="namedview677"
     pagecolor="#ffffff"
     bordercolor="#000000"
     borderopacity="0.25"
     inkscape:showpageshadow="2"
     inkscape:pageopacity="0.0"
     inkscape:pagecheckerboard="0"
     inkscape:deskcolor="#d1d1d1"
     showgrid="false"
     inkscape:zoom="0.34114583"
     inkscape:cx="486.59543"
     inkscape:cy="690.32063"
     inkscape:window-width="1854"
     inkscape:window-height="1011"
     inkscape:window-x="0"
     inkscape:window-y="0"
     inkscape:window-maximized="1"
     inkscape:current-layer="g673" />
  <g
     clip-path="none"
     id="g673"
     transform="scale(2)">
    <path
       fill="#111111"
       d="M 0,0 H 960 V 540 H 0 Z"
       fill-rule="evenodd"
       id="path649" />
    <path
       id="path651"
       d="M 0,0 V 540 H 7.6796875 V 0 Z"
       style="fill:#2ca074;fill-opacity:1" />
    <path
       fill="#ffffff"
       d="m 289.9818,248.84135 q -7.45312,0 -12.98437,-2.29688 -5.51563,-2.29687 -8.60938,-6.79687 -3.07812,-4.5 -3.23437,-11.07813 h 12.375 q 0.25,3.125 1.875,5.23438 1.625,2.09375 4.32812,3.14062 2.70313,1.04688 6.125,1.04688 3.42188,0 5.9375,-0.98438 2.51563,-0.98437 3.9375,-2.76562 1.42188,-1.79688 1.42188,-4.17188 0,-2.125 -1.28125,-3.5625 -1.26563,-1.4375 -3.64063,-2.46875 -2.375,-1.04687 -5.79687,-1.84375 l -6.82813,-1.70312 q -7.875,-1.92188 -12.34375,-6.01563 -4.45312,-4.10937 -4.45312,-10.85937 0,-5.625 3.01562,-9.82813 3.03125,-4.21875 8.29688,-6.54687 5.28125,-2.32813 12.03125,-2.32813 6.875,0 11.98437,2.35938 5.125,2.34375 8,6.53125 2.875,4.1875 2.96875,9.64062 h -12.29687 q -0.32813,-3.75 -3.1875,-5.78125 -2.84375,-2.04687 -7.59375,-2.04687 -3.21875,0 -5.51563,0.92187 -2.28125,0.90625 -3.46875,2.53125 -1.1875,1.625 -1.1875,3.71875 0,2.28125 1.375,3.8125 1.375,1.51563 3.65625,2.45313 2.29688,0.9375 4.89063,1.5625 l 5.625,1.375 q 3.90625,0.875 7.28125,2.375 3.375,1.5 5.90625,3.6875 2.54687,2.1875 3.9375,5.1875 1.40625,3 1.40625,6.90625 0,5.625 -2.84375,9.8125 -2.82813,4.1875 -8.20313,6.48437 -5.35937,2.29688 -12.90625,2.29688 z m 53.66849,0 q -7,0 -12.125,-3.01563 -5.125,-3.03125 -7.90625,-8.42187 -2.76563,-5.40625 -2.76563,-12.5625 0,-7.25 2.76563,-12.64063 2.78125,-5.40625 7.90625,-8.42187 5.125,-3.01563 12.125,-3.01563 7.03125,0 12.125,3.01563 5.10937,3.01562 7.875,8.42187 2.78125,5.39063 2.78125,12.64063 0,7.15625 -2.78125,12.5625 -2.76563,5.39062 -7.875,8.42187 -5.09375,3.01563 -12.125,3.01563 z m 0,-9.84375 q 3.32812,0 5.57812,-1.84375 2.25,-1.85938 3.375,-5.07813 1.125,-3.23437 1.125,-7.28125 0,-4.125 -1.125,-7.32812 -1.125,-3.21875 -3.375,-5.04688 -2.25,-1.82812 -5.57812,-1.82812 -3.34375,0 -5.57813,1.82812 -2.21875,1.82813 -3.34375,5.04688 -1.125,3.20312 -1.125,7.32812 0,4.04688 1.125,7.28125 1.125,3.21875 3.34375,5.07813 2.23438,1.84375 5.57813,1.84375 z m 31.48639,8.92187 v -46.57812 h 12.5 v 46.57812 z m 6.25,-52.65625 q -2.82813,0 -4.82813,-1.875 -2,-1.875 -2,-4.54687 0,-2.67188 2,-4.54688 2,-1.875 4.82813,-1.875 2.82812,0 4.84375,1.85938 2.03125,1.85937 2.03125,4.5625 0,2.67187 -2.03125,4.54687 -2.01563,1.875 -4.84375,1.875 z m 29.37359,-9.42187 v 62.07812 h -12.5 v -62.07812 z m 10.6236,62.07812 v -46.57812 h 12.5 v 46.57812 z m 6.25,-52.65625 q -2.82812,0 -4.82812,-1.875 -2,-1.875 -2,-4.54687 0,-2.67188 2,-4.54688 2,-1.875 4.82812,-1.875 2.82813,0 4.84375,1.85938 2.03125,1.85937 2.03125,4.5625 0,2.67187 -2.03125,4.54687 -2.01562,1.875 -4.84375,1.875 z m 13.29547,52.65625 18.04688,-28.79687 -0.0469,9.75 -17.07812,-27.53125 h 13.5 l 4.20312,7.32812 q 2,3.625 3.59375,7.15625 1.60938,3.51563 3.28125,6.84375 h -4.75 q 1.70313,-3.29687 3.28125,-6.82812 1.59375,-3.54688 3.67188,-7.17188 l 4.375,-7.32812 h 13.25 L 468.8512,228.9976 v -9.625 l 18.07812,28.54687 h -13.42187 l -5.15625,-8.75 q -2.04688,-3.57812 -3.70313,-7.125 -1.64062,-3.54687 -3.34375,-6.79687 h 4.79688 q -1.625,3.25 -3.1875,6.79687 -1.5625,3.54688 -3.5625,7.125 l -5.17188,8.75 z"
       fill-rule="nonzero"
       id="path657" />
    <path
       fill="#2ca074"
       d="m 263.1687,289.68524 v -15.51562 h 2.78125 v 6.40625 h 7.21875 v -6.40625 h 2.78125 v 15.51562 h -2.78125 v -6.76562 h -7.21875 v 6.76562 z m 25.05862,0 h -2.59375 v -9.48437 h -2.20312 q -1.25,0 -1.8125,0.45312 -0.54688,0.4375 -0.54688,1.26563 0,0.79687 0.5625,1.23437 0.5625,0.4375 1.79688,0.4375 h 3.29687 v 2 h -3.57812 q -2.3125,0 -3.54688,-1 -1.21875,-1.01562 -1.21875,-2.70312 0,-1.71875 1.20313,-2.78125 1.21875,-1.0625 3.51562,-1.0625 h 5.125 z m -7.34375,0 h -2.98437 l 3.28125,-5.3125 h 2.90625 z m 10.21579,0 v -11.64062 h 4.10938 l 1.96875,5.20312 q 0.21875,0.57813 0.39062,1.25 0.17188,0.67188 0.3125,1.375 0.15625,0.70313 0.26563,1.375 0.125,0.65625 0.21875,1.23438 h -0.375 q 0.0937,-0.5625 0.20312,-1.21875 0.125,-0.65625 0.26563,-1.35938 0.15625,-0.70312 0.32812,-1.39062 0.1875,-0.6875 0.39063,-1.26563 l 1.92187,-5.20312 h 4.14063 v 11.64062 h -2.64063 v -5.09375 q 0,-0.53125 0,-1.1875 0.0156,-0.67187 0.0312,-1.39062 0.0156,-0.73438 0.0312,-1.46875 0.0156,-0.75 0.0312,-1.42188 h 0.1875 q -0.20312,1.01563 -0.46875,1.96875 -0.25,0.9375 -0.53125,1.8125 -0.28125,0.85938 -0.59375,1.6875 l -1.96875,5.09375 h -2.29687 l -2,-5.09375 q -0.32813,-0.82812 -0.625,-1.70312 -0.28125,-0.89063 -0.53125,-1.82813 -0.25,-0.95312 -0.46875,-1.9375 h 0.23437 q 0.0156,0.60938 0.0312,1.34375 0.0156,0.71875 0.0312,1.46875 0.0156,0.73438 0.0312,1.42188 0.0156,0.6875 0.0156,1.23437 v 5.09375 z m 20.2667,0.23438 q -1.10938,0 -2,-0.39063 -0.875,-0.40625 -1.39063,-1.1875 -0.5,-0.78125 -0.5,-1.92187 0,-1 0.35938,-1.64063 0.375,-0.64062 1,-1.03125 0.64062,-0.39062 1.42187,-0.57812 0.79688,-0.20313 1.65625,-0.28125 1,-0.125 1.64063,-0.20313 0.64062,-0.0781 0.9375,-0.26562 0.29687,-0.1875 0.29687,-0.59375 v -0.0469 q 0,-0.57812 -0.23437,-0.96875 -0.23438,-0.40625 -0.6875,-0.60937 -0.45313,-0.21875 -1.10938,-0.21875 -0.6875,0 -1.1875,0.20312 -0.48437,0.20313 -0.79687,0.54688 -0.3125,0.32812 -0.45313,0.71875 l -2.51562,-0.51563 q 0.34375,-1.03125 1.0625,-1.70312 0.71875,-0.67188 1.70312,-1 1,-0.32813 2.17188,-0.32813 0.82812,0 1.65625,0.1875 0.84375,0.1875 1.53125,0.65625 0.70312,0.45313 1.125,1.21875 0.4375,0.76563 0.4375,1.9375 v 7.78125 h -2.59375 v -1.60937 h -0.10938 q -0.25,0.5 -0.70312,0.92187 -0.45313,0.42188 -1.125,0.67188 -0.67188,0.25 -1.59375,0.25 z m 0.70312,-2 q 0.84375,0 1.45313,-0.32813 0.60937,-0.34375 0.9375,-0.89062 0.34375,-0.54688 0.34375,-1.1875 v -1.375 q -0.14063,0.0937 -0.45313,0.1875 -0.3125,0.0937 -0.70312,0.17187 -0.39063,0.0781 -0.78125,0.125 -0.375,0.0469 -0.64063,0.0781 -0.59375,0.0937 -1.09375,0.28125 -0.48437,0.1875 -0.76562,0.53125 -0.26563,0.32812 -0.26563,0.875 0,0.5 0.25,0.84375 0.25,0.32812 0.6875,0.51562 0.45313,0.17188 1.03125,0.17188 z m 16.9332,1.76562 -4.1875,-15.51562 h 3 l 2.01562,8.25 q 0.20313,0.90625 0.39063,1.89062 0.1875,0.98438 0.35937,1.98438 0.17188,1 0.32813,1.96875 h -0.45313 q 0.17188,-0.96875 0.34375,-1.96875 0.1875,-1 0.375,-1.98438 0.20313,-0.98437 0.42188,-1.89062 l 2.10937,-8.25 h 2.9375 l 2.09375,8.25 q 0.23438,0.90625 0.42188,1.89062 0.20312,0.98438 0.375,1.98438 0.1875,1 0.375,1.96875 h -0.48438 q 0.17188,-0.96875 0.34375,-1.96875 0.17188,-1 0.35938,-1.98438 0.1875,-0.98437 0.39062,-1.89062 l 2.01563,-8.25 h 3 l -4.20313,15.51562 h -3.1875 l -2.25,-8.57812 q -0.3125,-1.1875 -0.54687,-2.59375 -0.23438,-1.40625 -0.5,-2.98438 h 0.65625 q -0.29688,1.53125 -0.5,2.90625 -0.20313,1.375 -0.54688,2.67188 l -2.26562,8.57812 z m 18.48947,0 v -11.64062 h 2.70312 v 11.64062 z m 1.34375,-13.28125 q -0.64063,0 -1.10938,-0.4375 -0.45312,-0.4375 -0.45312,-1.04687 0,-0.625 0.45312,-1.04688 0.46875,-0.4375 1.10938,-0.4375 0.65625,0 1.125,0.4375 0.46875,0.42188 0.46875,1.03125 0,0.625 -0.46875,1.0625 -0.46875,0.4375 -1.125,0.4375 z m 11.25384,5.70313 v 2.23437 h -6.98437 v -2.23437 z m 3.03406,7.57812 v -15.51562 h 9.9375 v 2.34375 h -7.15625 v 4.65625 h 6.45313 v 2.3125 h -6.45313 v 6.20312 z m 12.41361,0 v -11.64062 h 2.70312 v 11.64062 z m 1.34375,-13.28125 q -0.64063,0 -1.10938,-0.4375 -0.45312,-0.4375 -0.45312,-1.04687 0,-0.625 0.45312,-1.04688 0.46875,-0.4375 1.10938,-0.4375 0.65625,0 1.125,0.4375 0.46875,0.42188 0.46875,1.03125 0,0.625 -0.46875,1.0625 -0.46875,0.4375 -1.125,0.4375 z m 6.84759,8.54688 v -0.20313 q 0,-1.35937 0.23438,-2.125 0.25,-0.76562 0.71875,-1.21875 0.48437,-0.45312 1.14062,-0.85937 0.70313,-0.4375 1.17188,-1 0.48437,-0.57813 0.48437,-1.39063 0,-0.59375 -0.29687,-1.03125 -0.28125,-0.4375 -0.76563,-0.6875 -0.46875,-0.25 -1.0625,-0.25 -0.53125,0 -1.01562,0.23438 -0.48438,0.23437 -0.8125,0.70312 -0.3125,0.46875 -0.35938,1.17188 h -2.65625 q 0.0312,-1.4375 0.6875,-2.39063 0.67188,-0.96875 1.76563,-1.45312 1.09375,-0.48438 2.40625,-0.48438 1.45312,0 2.54687,0.5 1.09375,0.5 1.70313,1.4375 0.625,0.9375 0.625,2.21875 0,1.29688 -0.60938,2.1875 -0.59375,0.89063 -1.64062,1.51563 -0.625,0.375 -1.03125,0.75 -0.39063,0.35937 -0.57813,0.85937 -0.17187,0.5 -0.17187,1.3125 v 0.20313 z m 1.25,4.90625 q -0.73437,0 -1.21875,-0.45313 -0.48437,-0.46875 -0.48437,-1.17187 0,-0.71875 0.48437,-1.1875 0.48438,-0.46875 1.21875,-0.46875 0.75,0 1.21875,0.46875 0.48438,0.46875 0.48438,1.1875 0,0.70312 -0.48438,1.17187 -0.46875,0.45313 -1.21875,0.45313 z m 13.23023,-0.17188 v -15.51562 h 2.78125 v 6.40625 h 7.21875 v -6.40625 h 2.78125 v 15.51562 h -2.78125 v -6.76562 h -7.21875 v 6.76562 z m 25.05862,0 h -2.59375 v -9.48437 h -2.20312 q -1.25,0 -1.8125,0.45312 -0.54688,0.4375 -0.54688,1.26563 0,0.79687 0.5625,1.23437 0.5625,0.4375 1.79688,0.4375 h 3.29687 v 2 h -3.57812 q -2.3125,0 -3.54688,-1 -1.21875,-1.01562 -1.21875,-2.70312 0,-1.71875 1.20313,-2.78125 1.21875,-1.0625 3.51562,-1.0625 h 5.125 z m -7.34375,0 h -2.98437 l 3.28125,-5.3125 h 2.90625 z m 10.21579,0 v -11.64062 h 4.10938 l 1.96875,5.20312 q 0.21875,0.57813 0.39062,1.25 0.17188,0.67188 0.3125,1.375 0.15625,0.70313 0.26563,1.375 0.125,0.65625 0.21875,1.23438 h -0.375 q 0.0937,-0.5625 0.20312,-1.21875 0.125,-0.65625 0.26563,-1.35938 0.15625,-0.70312 0.32812,-1.39062 0.1875,-0.6875 0.39063,-1.26563 l 1.92187,-5.20312 h 4.14063 v 11.64062 h -2.64063 v -5.09375 q 0,-0.53125 0,-1.1875 0.0156,-0.67187 0.0312,-1.39062 0.0156,-0.73438 0.0312,-1.46875 0.0156,-0.75 0.0312,-1.42188 h 0.1875 q -0.20312,1.01563 -0.46875,1.96875 -0.25,0.9375 -0.53125,1.8125 -0.28125,0.85938 -0.59375,1.6875 l -1.96875,5.09375 h -2.29687 l -2,-5.09375 q -0.32813,-0.82812 -0.625,-1.70312 -0.28125,-0.89063 -0.53125,-1.82813 -0.25,-0.95312 -0.46875,-1.9375 h 0.23437 q 0.0156,0.60938 0.0312,1.34375 0.0156,0.71875 0.0312,1.46875 0.0156,0.73438 0.0312,1.42188 0.0156,0.6875 0.0156,1.23437 v 5.09375 z m 20.26669,0.23438 q -1.10937,0 -2,-0.39063 -0.875,-0.40625 -1.39062,-1.1875 -0.5,-0.78125 -0.5,-1.92187 0,-1 0.35937,-1.64063 0.375,-0.64062 1,-1.03125 0.64063,-0.39062 1.42188,-0.57812 0.79687,-0.20313 1.65625,-0.28125 1,-0.125 1.64062,-0.20313 0.64063,-0.0781 0.9375,-0.26562 0.29688,-0.1875 0.29688,-0.59375 v -0.0469 q 0,-0.57812 -0.23438,-0.96875 -0.23437,-0.40625 -0.6875,-0.60937 -0.45312,-0.21875 -1.10937,-0.21875 -0.6875,0 -1.1875,0.20312 -0.48438,0.20313 -0.79688,0.54688 -0.3125,0.32812 -0.45312,0.71875 l -2.51563,-0.51563 q 0.34375,-1.03125 1.0625,-1.70312 0.71875,-0.67188 1.70313,-1 1,-0.32813 2.17187,-0.32813 0.82813,0 1.65625,0.1875 0.84375,0.1875 1.53125,0.65625 0.70313,0.45313 1.125,1.21875 0.4375,0.76563 0.4375,1.9375 v 7.78125 h -2.59375 v -1.60937 h -0.10937 q -0.25,0.5 -0.70313,0.92187 -0.45312,0.42188 -1.125,0.67188 -0.67187,0.25 -1.59375,0.25 z m 0.70313,-2 q 0.84375,0 1.45312,-0.32813 0.60938,-0.34375 0.9375,-0.89062 0.34375,-0.54688 0.34375,-1.1875 v -1.375 q -0.14062,0.0937 -0.45312,0.1875 -0.3125,0.0937 -0.70313,0.17187 -0.39062,0.0781 -0.78125,0.125 -0.375,0.0469 -0.64062,0.0781 -0.59375,0.0937 -1.09375,0.28125 -0.48438,0.1875 -0.76563,0.53125 -0.26562,0.32812 -0.26562,0.875 0,0.5 0.25,0.84375 0.25,0.32812 0.6875,0.51562 0.45312,0.17188 1.03125,0.17188 z m 16.16757,1.76562 v -9.45312 h -3.73437 v -2.1875 h 10.15625 v 2.1875 h -3.71875 v 9.45312 z m 12.63803,0.23438 q -1.6875,0 -2.9375,-0.75 -1.25,-0.75 -1.9375,-2.09375 -0.6875,-1.35938 -0.6875,-3.15625 0,-1.8125 0.6875,-3.17188 0.6875,-1.35937 1.9375,-2.09375 1.25,-0.75 2.9375,-0.75 1.71875,0 2.95313,0.75 1.25,0.73438 1.9375,2.09375 0.6875,1.35938 0.6875,3.17188 0,1.79687 -0.6875,3.15625 -0.6875,1.34375 -1.9375,2.09375 -1.23438,0.75 -2.95313,0.75 z m 0,-2.1875 q 0.95313,0 1.57813,-0.51563 0.64062,-0.51562 0.9375,-1.375 0.3125,-0.85937 0.3125,-1.92187 0,-1.07813 -0.3125,-1.9375 -0.29688,-0.875 -0.9375,-1.375 -0.625,-0.51563 -1.57813,-0.51563 -0.9375,0 -1.5625,0.51563 -0.625,0.5 -0.9375,1.35937 -0.29687,0.85938 -0.29687,1.95313 0,1.0625 0.29687,1.92187 0.3125,0.85938 0.9375,1.375 0.625,0.51563 1.5625,0.51563 z m 7.93955,1.95312 v -11.64062 h 2.70312 v 4.84375 h 0.98438 l 3.57812,-4.84375 h 3.23438 l -4.3125,5.71875 4.35937,5.92187 h -3.26562 l -3.23438,-4.5625 h -1.34375 v 4.5625 z m 14.75226,-4.73437 v -0.20313 q 0,-1.35937 0.23437,-2.125 0.25,-0.76562 0.71875,-1.21875 0.48438,-0.45312 1.14063,-0.85937 0.70312,-0.4375 1.17187,-1 0.48438,-0.57813 0.48438,-1.39063 0,-0.59375 -0.29688,-1.03125 -0.28125,-0.4375 -0.76562,-0.6875 -0.46875,-0.25 -1.0625,-0.25 -0.53125,0 -1.01563,0.23438 -0.48437,0.23437 -0.8125,0.70312 -0.3125,0.46875 -0.35937,1.17188 h -2.65625 q 0.0312,-1.4375 0.6875,-2.39063 0.67187,-0.96875 1.76562,-1.45312 1.09375,-0.48438 2.40625,-0.48438 1.45313,0 2.54688,0.5 1.09375,0.5 1.70312,1.4375 0.625,0.9375 0.625,2.21875 0,1.29688 -0.60937,2.1875 -0.59375,0.89063 -1.64063,1.51563 -0.625,0.375 -1.03125,0.75 -0.39062,0.35937 -0.57812,0.85937 -0.17188,0.5 -0.17188,1.3125 v 0.20313 z m 1.25,4.90625 q -0.73438,0 -1.21875,-0.45313 -0.48438,-0.46875 -0.48438,-1.17187 0,-0.71875 0.48438,-1.1875 0.48437,-0.46875 1.21875,-0.46875 0.75,0 1.21875,0.46875 0.48437,0.46875 0.48437,1.1875 0,0.70312 -0.48437,1.17187 -0.46875,0.45313 -1.21875,0.45313 z m 13.23022,-0.17188 v -15.51562 h 2.78125 v 6.40625 h 7.21875 v -6.40625 h 2.78125 v 15.51562 h -2.78125 v -6.76562 h -7.21875 v 6.76562 z m 25.05866,0 h -2.59375 v -9.48437 h -2.20313 q -1.25,0 -1.8125,0.45312 -0.54687,0.4375 -0.54687,1.26563 0,0.79687 0.5625,1.23437 0.5625,0.4375 1.79687,0.4375 h 3.29688 v 2 h -3.57813 q -2.3125,0 -3.54687,-1 -1.21875,-1.01562 -1.21875,-2.70312 0,-1.71875 1.20312,-2.78125 1.21875,-1.0625 3.51563,-1.0625 h 5.125 z m -7.34375,0 h -2.98438 l 3.28125,-5.3125 h 2.90625 z m 10.21575,0 v -11.64062 h 4.10938 l 1.96875,5.20312 q 0.21875,0.57813 0.39062,1.25 0.17188,0.67188 0.3125,1.375 0.15625,0.70313 0.26563,1.375 0.125,0.65625 0.21875,1.23438 h -0.375 q 0.0937,-0.5625 0.20312,-1.21875 0.125,-0.65625 0.26563,-1.35938 0.15625,-0.70312 0.32812,-1.39062 0.1875,-0.6875 0.39063,-1.26563 l 1.92187,-5.20312 h 4.14063 v 11.64062 h -2.64063 v -5.09375 q 0,-0.53125 0,-1.1875 0.0156,-0.67187 0.0312,-1.39062 0.0156,-0.73438 0.0312,-1.46875 0.0156,-0.75 0.0312,-1.42188 h 0.1875 q -0.20312,1.01563 -0.46875,1.96875 -0.25,0.9375 -0.53125,1.8125 -0.28125,0.85938 -0.59375,1.6875 l -1.96875,5.09375 h -2.29687 l -2,-5.09375 q -0.32813,-0.82812 -0.625,-1.70312 -0.28125,-0.89063 -0.53125,-1.82813 -0.25,-0.95312 -0.46875,-1.9375 h 0.23437 q 0.0156,0.60938 0.0312,1.34375 0.0156,0.71875 0.0312,1.46875 0.0156,0.73438 0.0312,1.42188 0.0156,0.6875 0.0156,1.23437 v 5.09375 z m 20.26667,0.23438 q -1.10938,0 -2,-0.39063 -0.875,-0.40625 -1.39063,-1.1875 -0.5,-0.78125 -0.5,-1.92187 0,-1 0.35938,-1.64063 0.375,-0.64062 1,-1.03125 0.64062,-0.39062 1.42187,-0.57812 0.79688,-0.20313 1.65625,-0.28125 1,-0.125 1.64063,-0.20313 0.64062,-0.0781 0.9375,-0.26562 0.29687,-0.1875 0.29687,-0.59375 v -0.0469 q 0,-0.57812 -0.23437,-0.96875 -0.23438,-0.40625 -0.6875,-0.60937 -0.45313,-0.21875 -1.10938,-0.21875 -0.6875,0 -1.1875,0.20312 -0.48437,0.20313 -0.79687,0.54688 -0.3125,0.32812 -0.45313,0.71875 l -2.51562,-0.51563 q 0.34375,-1.03125 1.0625,-1.70312 0.71875,-0.67188 1.70312,-1 1,-0.32813 2.17188,-0.32813 0.82812,0 1.65625,0.1875 0.84375,0.1875 1.53125,0.65625 0.70312,0.45313 1.125,1.21875 0.4375,0.76563 0.4375,1.9375 v 7.78125 h -2.59375 v -1.60937 h -0.10938 q -0.25,0.5 -0.70312,0.92187 -0.45313,0.42188 -1.125,0.67188 -0.67188,0.25 -1.59375,0.25 z m 0.70312,-2 q 0.84375,0 1.45313,-0.32813 0.60937,-0.34375 0.9375,-0.89062 0.34375,-0.54688 0.34375,-1.1875 v -1.375 q -0.14063,0.0937 -0.45313,0.1875 -0.3125,0.0937 -0.70312,0.17187 -0.39063,0.0781 -0.78125,0.125 -0.375,0.0469 -0.64063,0.0781 -0.59375,0.0937 -1.09375,0.28125 -0.48437,0.1875 -0.76562,0.53125 -0.26563,0.32812 -0.26563,0.875 0,0.5 0.25,0.84375 0.25,0.32812 0.6875,0.51562 0.45313,0.17188 1.03125,0.17188 z m 23.69886,-9.875 v 11.64062 h -2.70313 v -9.42187 h -4.625 v 9.42187 h -2.70312 v -11.64062 z m 2.87182,16 v -16 h 2.64063 v 1.92187 h 0.1875 q 0.20312,-0.42187 0.57812,-0.89062 0.39063,-0.48438 1.04688,-0.82813 0.67187,-0.34375 1.70312,-0.34375 1.35938,0 2.4375,0.6875 1.07813,0.67188 1.71875,2.01563 0.64063,1.34375 0.64063,3.28125 0,1.90625 -0.625,3.25 -0.625,1.34375 -1.71875,2.04687 -1.07813,0.70313 -2.46875,0.70313 -0.98438,0 -1.65625,-0.32813 -0.65625,-0.34375 -1.0625,-0.8125 -0.39063,-0.48437 -0.59375,-0.90625 h -0.125 v 6.20313 z m 5.42188,-6.375 q 0.90625,0 1.51562,-0.5 0.60938,-0.5 0.92188,-1.35938 0.3125,-0.85937 0.3125,-1.9375 0,-1.07812 -0.3125,-1.92187 -0.29688,-0.85938 -0.92188,-1.34375 -0.60937,-0.48438 -1.51562,-0.48438 -0.90625,0 -1.51563,0.46875 -0.60937,0.46875 -0.9375,1.3125 -0.3125,0.82813 -0.3125,1.96875 0,1.14063 0.3125,2 0.32813,0.84375 0.9375,1.32813 0.625,0.46875 1.51563,0.46875 z m 12.93426,2.25 q -1.6875,0 -2.9375,-0.75 -1.25,-0.75 -1.9375,-2.09375 -0.6875,-1.35938 -0.6875,-3.15625 0,-1.8125 0.6875,-3.17188 0.6875,-1.35937 1.9375,-2.09375 1.25,-0.75 2.9375,-0.75 1.71875,0 2.95313,0.75 1.25,0.73438 1.9375,2.09375 0.6875,1.35938 0.6875,3.17188 0,1.79687 -0.6875,3.15625 -0.6875,1.34375 -1.9375,2.09375 -1.23438,0.75 -2.95313,0.75 z m 0,-2.1875 q 0.95313,0 1.57813,-0.51563 0.64062,-0.51562 0.9375,-1.375 0.3125,-0.85937 0.3125,-1.92187 0,-1.07813 -0.3125,-1.9375 -0.29688,-0.875 -0.9375,-1.375 -0.625,-0.51563 -1.57813,-0.51563 -0.9375,0 -1.5625,0.51563 -0.625,0.5 -0.9375,1.35937 -0.29687,0.85938 -0.29687,1.95313 0,1.0625 0.29687,1.92187 0.3125,0.85938 0.9375,1.375 0.625,0.51563 1.5625,0.51563 z m 12.98645,2.20312 q -1.60937,0 -2.875,-0.71875 -1.25,-0.71875 -1.96875,-2.0625 -0.71875,-1.35937 -0.71875,-3.28125 v -0.35937 q 0,-1.51563 0.1875,-2.75 0.1875,-1.23438 0.625,-2.1875 0.45313,-0.95313 1.1875,-1.64063 0.75,-0.6875 1.84375,-1.07812 1.09375,-0.39063 2.625,-0.48438 0.73438,-0.0625 1.09375,-0.20312 0.375,-0.14063 0.5,-0.375 0.125,-0.25 0.125,-0.625 h 2.1875 q 0,1.07812 -0.375,1.76562 -0.375,0.67188 -1.21875,1.01563 -0.82812,0.32812 -2.1875,0.4375 -1.46875,0.10937 -2.40625,0.5 -0.9375,0.375 -1.42187,1.29687 -0.48438,0.92188 -0.64063,2.60938 h 0.0625 q 0.3125,-0.76563 0.95313,-1.4375 0.64062,-0.6875 1.53125,-1.09375 0.89062,-0.42188 1.92187,-0.42188 1.25,0 2.25,0.6875 1.01563,0.67188 1.60938,1.875 0.59375,1.20313 0.59375,2.75 0,1.65625 -0.70313,2.96875 -0.70312,1.29688 -1.95312,2.0625 -1.23438,0.75 -2.82813,0.75 z m 0,-2.17187 q 0.89063,0 1.51563,-0.40625 0.64062,-0.42188 0.96875,-1.20313 0.32812,-0.78125 0.32812,-1.89062 0,-1.09375 -0.32812,-1.875 -0.3125,-0.78125 -0.9375,-1.1875 -0.60938,-0.42188 -1.48438,-0.42188 -0.875,0 -1.54687,0.4375 -0.67188,0.4375 -1.04688,1.23438 -0.35937,0.79687 -0.35937,1.875 0,1.03125 0.34375,1.8125 0.35937,0.76562 1,1.20312 0.64062,0.42188 1.54687,0.42188 z m 6.61139,1.92187 v -2.23437 h 0.39063 q 0.45312,0 0.76562,-0.1875 0.3125,-0.1875 0.51563,-0.64063 0.20312,-0.46875 0.3125,-1.26562 0.125,-0.79688 0.17187,-2 l 0.21875,-5.3125 h 8.65625 v 11.64062 h -2.70312 v -9.42187 h -3.375 l -0.17188,3.65625 q -0.0781,2.03125 -0.53125,3.3125 -0.4375,1.26562 -1.26562,1.85937 -0.82813,0.59375 -2.07813,0.59375 z m 19.04901,0.23438 q -1.75,0 -3.01562,-0.73438 -1.26563,-0.73437 -1.95313,-2.07812 -0.6875,-1.34375 -0.6875,-3.17188 0,-1.79687 0.67188,-3.15625 0.67187,-1.35937 1.90625,-2.10937 1.23437,-0.76563 2.90625,-0.76563 1.0625,0 2.01562,0.34375 0.96875,0.34375 1.70313,1.0625 0.75,0.70313 1.17187,1.8125 0.42188,1.10938 0.42188,2.64063 v 0.85937 h -9.51563 v -1.84375 h 8.1875 l -1.28125,0.54688 q 0,-0.98438 -0.29687,-1.71875 -0.29688,-0.75 -0.90625,-1.17188 -0.59375,-0.42187 -1.48438,-0.42187 -0.90625,0 -1.53125,0.42187 -0.625,0.42188 -0.95312,1.125 -0.32813,0.70313 -0.32813,1.57813 v 1.26562 q 0,1.10938 0.375,1.875 0.375,0.75 1.04688,1.14063 0.6875,0.375 1.57812,0.375 0.59375,0 1.07813,-0.17188 0.48437,-0.17187 0.84375,-0.5 0.35937,-0.34375 0.53125,-0.82812 l 2.48437,0.5 q -0.28125,0.9375 -0.95312,1.64062 -0.67188,0.70313 -1.6875,1.09375 -1.01563,0.39063 -2.32813,0.39063 z m 7.47089,-0.23438 v -11.64062 h 4.10937 l 1.96875,5.20312 q 0.21875,0.57813 0.39063,1.25 0.17187,0.67188 0.3125,1.375 0.15625,0.70313 0.26562,1.375 0.125,0.65625 0.21875,1.23438 h -0.375 q 0.0937,-0.5625 0.20313,-1.21875 0.125,-0.65625 0.26562,-1.35938 0.15625,-0.70312 0.32813,-1.39062 0.1875,-0.6875 0.39062,-1.26563 l 1.92188,-5.20312 h 4.14062 v 11.64062 h -2.64062 v -5.09375 q 0,-0.53125 0,-1.1875 0.0156,-0.67187 0.0312,-1.39062 0.0156,-0.73438 0.0312,-1.46875 0.0156,-0.75 0.0312,-1.42188 h 0.1875 q -0.20313,1.01563 -0.46875,1.96875 -0.25,0.9375 -0.53125,1.8125 -0.28125,0.85938 -0.59375,1.6875 l -1.96875,5.09375 h -2.29688 l -2,-5.09375 q -0.32812,-0.82812 -0.625,-1.70312 -0.28125,-0.89063 -0.53125,-1.82813 -0.25,-0.95312 -0.46875,-1.9375 h 0.23438 q 0.0156,0.60938 0.0312,1.34375 0.0156,0.71875 0.0312,1.46875 0.0156,0.73438 0.0312,1.42188 0.0156,0.6875 0.0156,1.23437 v 5.09375 z m 17.71979,-4.9375 -0.1875,-10.57812 h 2.9375 l -0.1875,10.57812 z m 1.28125,5.10938 q -0.73438,0 -1.21875,-0.45313 -0.46875,-0.46875 -0.46875,-1.17187 0,-0.71875 0.46875,-1.1875 0.48437,-0.46875 1.21875,-0.46875 0.75,0 1.21875,0.46875 0.48437,0.46875 0.48437,1.1875 0,0.70312 -0.48437,1.17187 -0.46875,0.45313 -1.21875,0.45313 z"
       fill-rule="nonzero"
       id="path661" />
    <path
       fill="#2ca074"
       d="m 261.6068,313.19946 h 230.3937 v 3.84253 H 261.6068 Z"
       fill-rule="evenodd"
       id="path663" />
    <path
       fill="#7a9080"
       d="m 272.30994,337.42007 -1.76563,10.65625 h -1.35937 l 1.5625,-9.46875 h -5.59375 l -1.5625,9.46875 h -1.35938 l 1.76563,-10.65625 z m 0.15762,13.64062 1.82813,-10.98437 h 1.25 l -0.21875,1.28125 h 0.0625 q 0.17187,-0.25 0.46875,-0.5625 0.3125,-0.32813 0.8125,-0.5625 0.5,-0.25 1.26562,-0.25 0.875,0 1.51563,0.39062 0.64062,0.375 0.98437,1.09375 0.35938,0.71875 0.35938,1.70313 0,0.9375 -0.28125,1.84375 -0.26563,0.90625 -0.79688,1.64062 -0.51562,0.71875 -1.26562,1.15625 -0.75,0.4375 -1.71875,0.4375 -0.78125,0 -1.21875,-0.26562 -0.42188,-0.26563 -0.625,-0.60938 -0.20313,-0.34375 -0.29688,-0.57812 h -0.125 l -0.70312,4.26562 z m 4.09375,-3.96875 q 0.71875,0 1.26563,-0.34375 0.54687,-0.35937 0.92187,-0.92187 0.375,-0.57813 0.5625,-1.26563 0.1875,-0.6875 0.1875,-1.34375 0,-0.92187 -0.4375,-1.5 -0.42187,-0.59375 -1.34375,-0.59375 -0.71875,0 -1.26562,0.34375 -0.54688,0.34375 -0.90625,0.90625 -0.35938,0.5625 -0.54688,1.25 -0.1875,0.6875 -0.1875,1.39063 0,0.9375 0.4375,1.51562 0.4375,0.5625 1.3125,0.5625 z m 8.70002,1.15625 q -0.96875,0 -1.67188,-0.40625 -0.6875,-0.40625 -1.0625,-1.14062 -0.375,-0.73438 -0.375,-1.71875 0,-0.95313 0.29688,-1.84375 0.29687,-0.90625 0.85937,-1.60938 0.5625,-0.71875 1.35938,-1.125 0.79687,-0.42187 1.79687,-0.42187 0.96875,0 1.67188,0.40625 0.70312,0.39062 1.07812,1.125 0.375,0.73437 0.375,1.73437 0,0.96875 -0.3125,1.875 -0.29687,0.89063 -0.85937,1.59375 -0.5625,0.70313 -1.375,1.125 -0.79688,0.40625 -1.78125,0.40625 z m 0.0312,-1.15625 q 0.73437,0 1.29687,-0.34375 0.5625,-0.34375 0.9375,-0.90625 0.375,-0.5625 0.5625,-1.23437 0.20313,-0.67188 0.20313,-1.32813 0,-0.60937 -0.20313,-1.09375 -0.1875,-0.48437 -0.59375,-0.76562 -0.40625,-0.29688 -1.0625,-0.29688 -0.73437,0 -1.29687,0.34375 -0.54688,0.34375 -0.9375,0.92188 -0.375,0.5625 -0.57813,1.23437 -0.1875,0.67188 -0.1875,1.34375 0,0.89063 0.4375,1.51563 0.4375,0.60937 1.42188,0.60937 z m 5.45141,0.98438 1.32813,-8 h 3.26562 q 1.32813,0 1.98438,0.59375 0.67187,0.59375 0.5,1.54687 -0.10938,0.70313 -0.60938,1.10938 -0.48437,0.40625 -1.21875,0.54687 0.45313,0.0625 0.84375,0.32813 0.39063,0.25 0.57813,0.6875 0.20312,0.42187 0.10937,1.03125 -0.0937,0.625 -0.5,1.125 -0.40625,0.48437 -1.04687,0.76562 -0.64063,0.26563 -1.45313,0.26563 z m 1.42188,-1.17188 h 2.54687 q 0.57813,0 0.98438,-0.26562 0.42187,-0.28125 0.51562,-0.8125 0.10938,-0.59375 -0.1875,-0.95313 -0.28125,-0.35937 -0.90625,-0.35937 h -2.54687 z m 0.57812,-3.46875 h 2.04688 q 0.70312,0 1.17187,-0.29687 0.46875,-0.29688 0.54688,-0.82813 0.0781,-0.51562 -0.29688,-0.78125 -0.35937,-0.28125 -1.0625,-0.28125 h -2.04687 z m 9.64646,4.8125 q -0.98438,0 -1.6875,-0.375 -0.70313,-0.39062 -1.09375,-1.10937 -0.375,-0.73438 -0.375,-1.75 0,-1.04688 0.32812,-1.96875 0.34375,-0.9375 0.9375,-1.64063 0.60938,-0.70312 1.39063,-1.09375 0.79687,-0.40625 1.70312,-0.40625 0.78125,0 1.34375,0.26563 0.57813,0.26562 0.89063,0.76562 0.3125,0.48438 0.3125,1.15625 0,0.67188 -0.34375,1.15625 -0.34375,0.46875 -1.07813,0.76563 -0.71875,0.29687 -1.85937,0.4375 -1.14063,0.14062 -2.73438,0.14062 l 0.17188,-0.96875 q 1.3125,0 2.1875,-0.0781 0.89062,-0.0781 1.40625,-0.25 0.51562,-0.1875 0.73437,-0.48438 0.23438,-0.29687 0.23438,-0.75 0,-0.45312 -0.39063,-0.73437 -0.375,-0.28125 -1,-0.28125 -0.8125,0 -1.375,0.39062 -0.5625,0.39063 -0.92187,1 -0.35938,0.60938 -0.53125,1.29688 -0.17188,0.6875 -0.17188,1.28125 0,0.59375 0.1875,1.0625 0.20313,0.46875 0.64063,0.75 0.4375,0.28125 1.17187,0.28125 0.76563,0 1.35938,-0.32813 0.60937,-0.32812 0.90625,-0.90625 l 1.20312,0.32813 q -0.45312,0.95312 -1.40625,1.5 -0.95312,0.54687 -2.14062,0.54687 z m 4.578,2.8125 1.82812,-10.98437 h 1.25 l -0.21875,1.28125 h 0.0625 q 0.17188,-0.25 0.46875,-0.5625 0.3125,-0.32813 0.8125,-0.5625 0.5,-0.25 1.26563,-0.25 0.875,0 1.51562,0.39062 0.64063,0.375 0.98438,1.09375 0.35937,0.71875 0.35937,1.70313 0,0.9375 -0.28125,1.84375 -0.26562,0.90625 -0.79687,1.64062 -0.51563,0.71875 -1.26563,1.15625 -0.75,0.4375 -1.71875,0.4375 -0.78125,0 -1.21875,-0.26562 -0.42187,-0.26563 -0.625,-0.60938 -0.20312,-0.34375 -0.29687,-0.57812 h -0.125 l -0.70313,4.26562 z m 4.09375,-3.96875 q 0.71875,0 1.26562,-0.34375 0.54688,-0.35937 0.92188,-0.92187 0.375,-0.57813 0.5625,-1.26563 0.1875,-0.6875 0.1875,-1.34375 0,-0.92187 -0.4375,-1.5 -0.42188,-0.59375 -1.34375,-0.59375 -0.71875,0 -1.26563,0.34375 -0.54687,0.34375 -0.90625,0.90625 -0.35937,0.5625 -0.54687,1.25 -0.1875,0.6875 -0.1875,1.39063 0,0.9375 0.4375,1.51562 0.4375,0.5625 1.3125,0.5625 z m 11.19998,0.98438 h -1.28125 l 1.14063,-6.875 h -1.8125 q -1.03125,0 -1.54688,0.375 -0.5,0.35937 -0.625,1.03125 -0.10937,0.65625 0.28125,1.03125 0.39063,0.35937 1.40625,0.35937 h 2.375 l -0.17187,1.07813 h -2.46875 q -1.57813,0 -2.23438,-0.67188 -0.65625,-0.6875 -0.46875,-1.79687 0.125,-0.75 0.5625,-1.3125 0.4375,-0.57813 1.17188,-0.89063 0.75,-0.32812 1.8125,-0.32812 h 3.17187 z m -5.17187,0 h -1.48438 l 2.82813,-3.625 h 1.4375 z m 7.43176,0 1.32812,-8 h 3.26563 q 1.32812,0 1.98437,0.59375 0.67188,0.59375 0.5,1.54687 -0.10937,0.70313 -0.60937,1.10938 -0.48438,0.40625 -1.21875,0.54687 0.45312,0.0625 0.84375,0.32813 0.39062,0.25 0.57812,0.6875 0.20313,0.42187 0.10938,1.03125 -0.0937,0.625 -0.5,1.125 -0.40625,0.48437 -1.04688,0.76562 -0.64062,0.26563 -1.45312,0.26563 z m 1.42187,-1.17188 h 2.54688 q 0.57812,0 0.98437,-0.26562 0.42188,-0.28125 0.51563,-0.8125 0.10937,-0.59375 -0.1875,-0.95313 -0.28125,-0.35937 -0.90625,-0.35937 h -2.54688 z m 0.57813,-3.46875 h 2.04687 q 0.70313,0 1.17188,-0.29687 0.46875,-0.29688 0.54687,-0.82813 0.0781,-0.51562 -0.29687,-0.78125 -0.35938,-0.28125 -1.0625,-0.28125 h -2.04688 z m 9.25583,4.8125 q -0.98438,0 -1.67188,-0.51562 -0.67187,-0.51563 -0.95312,-1.4375 -0.28125,-0.9375 -0.0625,-2.20313 0.20312,-1.28125 0.78125,-2.1875 0.59375,-0.92187 1.4375,-1.42187 0.85937,-0.5 1.85937,-0.5 0.78125,0 1.1875,0.25 0.42188,0.25 0.60938,0.57812 0.1875,0.32813 0.28125,0.54688 h 0.10937 l 0.21875,-1.28125 h 1.28125 l -1.3125,8 h -1.25 l 0.1875,-1.23438 h -0.14062 q -0.1875,0.23438 -0.5,0.5625 -0.29688,0.32813 -0.79688,0.59375 -0.5,0.25 -1.26562,0.25 z m 0.40625,-1.15625 q 0.73437,0 1.29687,-0.375 0.5625,-0.39062 0.92188,-1.0625 0.375,-0.6875 0.51562,-1.57812 0.15625,-0.89063 0,-1.54688 -0.14062,-0.67187 -0.57812,-1.03125 -0.4375,-0.375 -1.17188,-0.375 -0.76562,0 -1.34375,0.40625 -0.57812,0.39063 -0.9375,1.0625 -0.35937,0.65625 -0.5,1.48438 -0.125,0.84375 0.0156,1.53125 0.14062,0.67187 0.57812,1.07812 0.45313,0.40625 1.20313,0.40625 z m 12.02682,0.98438 h -1.29687 l 0.96875,-5.76563 h -0.0937 l -4.75,5.76563 h -1.23438 l 1.32813,-8 h 1.28125 l -0.95313,5.78125 h 0.0937 l 4.76563,-5.78125 h 1.21875 z m -1.70312,-9.125 q -0.57813,0 -1.01563,-0.26563 -0.42187,-0.28125 -0.625,-0.73437 -0.1875,-0.45313 -0.0937,-1.03125 h 0.9375 q -0.0781,0.5 0.1875,0.8125 0.26563,0.29687 0.76563,0.29687 0.32812,0 0.60937,-0.125 0.28125,-0.14062 0.46875,-0.39062 0.1875,-0.26563 0.23438,-0.59375 h 0.95312 q -0.0937,0.57812 -0.45312,1.04687 -0.35938,0.45313 -0.875,0.71875 -0.51563,0.26563 -1.09375,0.26563 z m 7.59247,12.10937 1.82812,-10.98437 h 1.25 l -0.21875,1.28125 h 0.0625 q 0.17188,-0.25 0.46875,-0.5625 0.3125,-0.32813 0.8125,-0.5625 0.5,-0.25 1.26563,-0.25 0.875,0 1.51562,0.39062 0.64063,0.375 0.98438,1.09375 0.35937,0.71875 0.35937,1.70313 0,0.9375 -0.28125,1.84375 -0.26562,0.90625 -0.79687,1.64062 -0.51563,0.71875 -1.26563,1.15625 -0.75,0.4375 -1.71875,0.4375 -0.78125,0 -1.21875,-0.26562 -0.42187,-0.26563 -0.625,-0.60938 -0.20312,-0.34375 -0.29687,-0.57812 h -0.125 l -0.70313,4.26562 z m 4.09375,-3.96875 q 0.71875,0 1.26562,-0.34375 0.54688,-0.35937 0.92188,-0.92187 0.375,-0.57813 0.5625,-1.26563 0.1875,-0.6875 0.1875,-1.34375 0,-0.92187 -0.4375,-1.5 -0.42188,-0.59375 -1.34375,-0.59375 -0.71875,0 -1.26563,0.34375 -0.54687,0.34375 -0.90625,0.90625 -0.35937,0.5625 -0.54687,1.25 -0.1875,0.6875 -0.1875,1.39063 0,0.9375 0.4375,1.51562 0.4375,0.5625 1.3125,0.5625 z m 8.49948,1.15625 q -0.98438,0 -1.67188,-0.51562 -0.67187,-0.51563 -0.95312,-1.4375 -0.28125,-0.9375 -0.0625,-2.20313 0.20312,-1.28125 0.78125,-2.1875 0.59375,-0.92187 1.4375,-1.42187 0.85937,-0.5 1.85937,-0.5 0.78125,0 1.1875,0.25 0.42188,0.25 0.60938,0.57812 0.1875,0.32813 0.28125,0.54688 h 0.10937 l 0.21875,-1.28125 h 1.28125 l -1.3125,8 h -1.25 l 0.1875,-1.23438 H 369.256 q -0.1875,0.23438 -0.5,0.5625 -0.29688,0.32813 -0.79688,0.59375 -0.5,0.25 -1.26562,0.25 z m 0.40625,-1.15625 q 0.73437,0 1.29687,-0.375 0.5625,-0.39062 0.92188,-1.0625 0.375,-0.6875 0.51562,-1.57812 0.15625,-0.89063 0,-1.54688 -0.14062,-0.67187 -0.57812,-1.03125 -0.4375,-0.375 -1.17188,-0.375 -0.76562,0 -1.34375,0.40625 -0.57812,0.39063 -0.9375,1.0625 -0.35937,0.65625 -0.5,1.48438 -0.125,0.84375 0.0156,1.53125 0.14062,0.67187 0.57812,1.07812 0.45313,0.40625 1.20313,0.40625 z m 8.93304,1.15625 q -0.96875,0 -1.67187,-0.40625 -0.6875,-0.40625 -1.0625,-1.14062 -0.375,-0.73438 -0.375,-1.71875 0,-0.95313 0.29687,-1.84375 0.29688,-0.90625 0.85938,-1.60938 0.5625,-0.71875 1.35937,-1.125 0.79688,-0.42187 1.79688,-0.42187 0.59375,0 1.09375,0.15625 0.51562,0.14062 0.89062,0.4375 0.39063,0.29687 0.625,0.71875 0.25,0.40625 0.32813,0.92187 l -1.26563,0.28125 q -0.0312,-0.29687 -0.15625,-0.54687 -0.125,-0.26563 -0.34375,-0.4375 -0.21875,-0.1875 -0.51562,-0.28125 -0.29688,-0.10938 -0.6875,-0.10938 -0.71875,0 -1.28125,0.34375 -0.5625,0.34375 -0.95313,0.92188 -0.375,0.5625 -0.57812,1.23437 -0.1875,0.67188 -0.1875,1.34375 0,0.59375 0.1875,1.07813 0.20312,0.48437 0.60937,0.76562 0.40625,0.28125 1.0625,0.28125 0.40625,0 0.76563,-0.10937 0.375,-0.10938 0.67187,-0.3125 0.3125,-0.21875 0.54688,-0.48438 0.23437,-0.28125 0.35937,-0.59375 l 1.1875,0.40625 q -0.23437,0.53125 -0.60937,0.95313 -0.375,0.40625 -0.84375,0.70312 -0.45313,0.28125 -1,0.4375 -0.53125,0.15625 -1.10938,0.15625 z m 6.72388,-0.17187 1.125,-6.8125 h -2.64063 l 0.20313,-1.1875 h 6.53125 l -0.1875,1.1875 h -2.625 l -1.125,6.8125 z m 8.29397,0.17187 q -0.98437,0 -1.6875,-0.375 -0.70312,-0.39062 -1.09375,-1.10937 -0.375,-0.73438 -0.375,-1.75 0,-1.04688 0.32813,-1.96875 0.34375,-0.9375 0.9375,-1.64063 0.60937,-0.70312 1.39062,-1.09375 0.79688,-0.40625 1.70313,-0.40625 0.78125,0 1.34375,0.26563 0.57812,0.26562 0.89062,0.76562 0.3125,0.48438 0.3125,1.15625 0,0.67188 -0.34375,1.15625 -0.34375,0.46875 -1.07812,0.76563 -0.71875,0.29687 -1.85938,0.4375 -1.14062,0.14062 -2.73437,0.14062 l 0.17187,-0.96875 q 1.3125,0 2.1875,-0.0781 0.89063,-0.0781 1.40625,-0.25 0.51563,-0.1875 0.73438,-0.48438 0.23437,-0.29687 0.23437,-0.75 0,-0.45312 -0.39062,-0.73437 -0.375,-0.28125 -1,-0.28125 -0.8125,0 -1.375,0.39062 -0.5625,0.39063 -0.92188,1 -0.35937,0.60938 -0.53125,1.29688 -0.17187,0.6875 -0.17187,1.28125 0,0.59375 0.1875,1.0625 0.20312,0.46875 0.64062,0.75 0.4375,0.28125 1.17188,0.28125 0.76562,0 1.35937,-0.32813 0.60938,-0.32812 0.90625,-0.90625 l 1.20313,0.32813 q -0.45313,0.95312 -1.40625,1.5 -0.95313,0.54687 -2.14063,0.54687 z m 11.23423,-4.875 -0.20313,1.1875 h -4.39062 l 0.20312,-1.1875 z m -3.54688,-3.29687 -1.3125,8 h -1.29687 l 1.32812,-8 z m 5.07813,0 -1.32813,8 h -1.28125 l 1.32813,-8 z m 7.34933,8 h -1.29688 l 0.96875,-5.76563 h -0.0937 l -4.75,5.76563 h -1.23437 l 1.32812,-8 h 1.28125 l -0.95312,5.78125 h 0.0937 l 4.76562,-5.78125 h 1.21875 z m 8.07977,0 h -1.28125 l 1.14063,-6.875 h -1.8125 q -1.03125,0 -1.54688,0.375 -0.5,0.35937 -0.625,1.03125 -0.10937,0.65625 0.28125,1.03125 0.39063,0.35937 1.40625,0.35937 h 2.375 l -0.17187,1.07813 h -2.46875 q -1.57813,0 -2.23438,-0.67188 -0.65625,-0.6875 -0.46875,-1.79687 0.125,-0.75 0.5625,-1.3125 0.4375,-0.57813 1.17188,-0.89063 0.75,-0.32812 1.8125,-0.32812 h 3.17187 z m -5.17187,0 h -1.48438 l 2.82813,-3.625 h 1.4375 z m 9.08801,0 1.125,-6.8125 h -2.64062 l 0.20312,-1.1875 h 6.53125 l -0.1875,1.1875 h -2.625 l -1.125,6.8125 z m 8.14685,0.17187 q -0.98437,0 -1.67187,-0.51562 -0.67188,-0.51563 -0.95313,-1.4375 -0.28125,-0.9375 -0.0625,-2.20313 0.20313,-1.28125 0.78125,-2.1875 0.59375,-0.92187 1.4375,-1.42187 0.85938,-0.5 1.85938,-0.5 0.78125,0 1.1875,0.25 0.42187,0.25 0.60937,0.57812 0.1875,0.32813 0.28125,0.54688 h 0.10938 l 0.21875,-1.28125 h 1.28125 l -1.3125,8 h -1.25 l 0.1875,-1.23438 h -0.14063 q -0.1875,0.23438 -0.5,0.5625 -0.29687,0.32813 -0.79687,0.59375 -0.5,0.25 -1.26563,0.25 z m 0.40625,-1.15625 q 0.73438,0 1.29688,-0.375 0.5625,-0.39062 0.92187,-1.0625 0.375,-0.6875 0.51563,-1.57812 0.15625,-0.89063 0,-1.54688 -0.14063,-0.67187 -0.57813,-1.03125 -0.4375,-0.375 -1.17187,-0.375 -0.76563,0 -1.34375,0.40625 -0.57813,0.39063 -0.9375,1.0625 -0.35938,0.65625 -0.5,1.48438 -0.125,0.84375 0.0156,1.53125 0.14063,0.67187 0.57813,1.07812 0.45312,0.40625 1.20312,0.40625 z m 13.05512,1.15625 q -0.96875,0 -1.67188,-0.40625 -0.6875,-0.40625 -1.0625,-1.14062 -0.375,-0.73438 -0.375,-1.71875 0,-0.95313 0.29688,-1.84375 0.29687,-0.90625 0.85937,-1.60938 0.5625,-0.71875 1.35938,-1.125 0.79687,-0.42187 1.79687,-0.42187 0.59375,0 1.09375,0.15625 0.51563,0.14062 0.89063,0.4375 0.39062,0.29687 0.625,0.71875 0.25,0.40625 0.32812,0.92187 l -1.26562,0.28125 q -0.0312,-0.29687 -0.15625,-0.54687 -0.125,-0.26563 -0.34375,-0.4375 -0.21875,-0.1875 -0.51563,-0.28125 -0.29687,-0.10938 -0.6875,-0.10938 -0.71875,0 -1.28125,0.34375 -0.5625,0.34375 -0.95312,0.92188 -0.375,0.5625 -0.57813,1.23437 -0.1875,0.67188 -0.1875,1.34375 0,0.59375 0.1875,1.07813 0.20313,0.48437 0.60938,0.76562 0.40625,0.28125 1.0625,0.28125 0.40625,0 0.76562,-0.10937 0.375,-0.10938 0.67188,-0.3125 0.3125,-0.21875 0.54687,-0.48438 0.23438,-0.28125 0.35938,-0.59375 l 1.1875,0.40625 q -0.23438,0.53125 -0.60938,0.95313 -0.375,0.40625 -0.84375,0.70312 -0.45312,0.28125 -1,0.4375 -0.53125,0.15625 -1.10937,0.15625 z m 11.47387,-0.17187 h -1.29687 l 0.96875,-5.76563 h -0.0937 l -4.75,5.76563 h -1.23438 l 1.32813,-8 h 1.28125 l -0.95313,5.78125 h 0.0937 l 4.76563,-5.78125 h 1.21875 z m 6.38935,0 1.32812,-8 h 1.28125 l -0.5625,3.46875 h 0.79688 l 3.42187,-3.46875 h 1.625 l -3.82812,3.875 2.54687,4.125 h -1.625 l -2.03125,-3.34375 h -1.10937 l -0.54688,3.34375 z m 8.12976,-6.95313 0.17187,-1.04687 h 2.79688 l -0.17188,1.04687 z m 3.03125,1.82813 h 2.29687 q 0.9375,0 1.53125,0.32812 0.60938,0.32813 0.84375,0.90625 0.25,0.5625 0.125,1.29688 -0.125,0.73437 -0.5625,1.32812 -0.4375,0.57813 -1.15625,0.92188 -0.70312,0.34375 -1.64062,0.34375 h -3.39063 l 1.32813,-8 h 1.29687 l -1.14062,6.8125 h 2.09375 q 0.73437,0 1.25,-0.375 0.51562,-0.39063 0.60937,-0.96875 0.0937,-0.625 -0.29687,-1.01563 -0.375,-0.39062 -1.09375,-0.39062 h -2.3125 z m 5.02453,7.42187 0.57813,-3.48437 h 0.65625 q 0.28125,-0.25 0.5,-0.54688 0.23437,-0.29687 0.4375,-0.70312 0.20312,-0.42188 0.39062,-1.01563 0.1875,-0.59375 0.40625,-1.40625 l 0.76563,-3.14062 h 5.17187 l -1.14062,6.8125 h 1.21875 l -0.5625,3.48437 h -1.28125 l 0.375,-2.29687 h -5.84375 l -0.39063,2.29687 z m 2.6875,-3.48437 h 3.79688 l 0.9375,-5.625 h -2.70313 l -0.5,1.95312 q -0.32812,1.26563 -0.6875,2.20313 -0.34375,0.92187 -0.84375,1.46875 z m 10.67133,1.35937 q -0.98437,0 -1.6875,-0.375 -0.70312,-0.39062 -1.09375,-1.10937 -0.375,-0.73438 -0.375,-1.75 0,-1.04688 0.32813,-1.96875 0.34375,-0.9375 0.9375,-1.64063 0.60937,-0.70312 1.39062,-1.09375 0.79688,-0.40625 1.70313,-0.40625 0.78125,0 1.34375,0.26563 0.57812,0.26562 0.89062,0.76562 0.3125,0.48438 0.3125,1.15625 0,0.67188 -0.34375,1.15625 -0.34375,0.46875 -1.07812,0.76563 -0.71875,0.29687 -1.85938,0.4375 -1.14062,0.14062 -2.73437,0.14062 l 0.17187,-0.96875 q 1.3125,0 2.1875,-0.0781 0.89063,-0.0781 1.40625,-0.25 0.51563,-0.1875 0.73438,-0.48438 0.23437,-0.29687 0.23437,-0.75 0,-0.45312 -0.39062,-0.73437 -0.375,-0.28125 -1,-0.28125 -0.8125,0 -1.375,0.39062 -0.5625,0.39063 -0.92188,1 -0.35937,0.60938 -0.53125,1.29688 -0.17187,0.6875 -0.17187,1.28125 0,0.59375 0.1875,1.0625 0.20312,0.46875 0.64062,0.75 0.4375,0.28125 1.17188,0.28125 0.76562,0 1.35937,-0.32813 0.60938,-0.32812 0.90625,-0.90625 l 1.20313,0.32813 q -0.45313,0.95312 -1.40625,1.5 -0.95313,0.54687 -2.14063,0.54687 z m 6.73425,-0.17187 1.125,-6.8125 h -2.64062 l 0.20312,-1.1875 h 6.53125 l -0.1875,1.1875 h -2.625 l -1.125,6.8125 z m 8.2471,0.17187 q -0.96875,0 -1.67187,-0.40625 -0.6875,-0.40625 -1.0625,-1.14062 -0.375,-0.73438 -0.375,-1.71875 0,-0.95313 0.29687,-1.84375 0.29688,-0.90625 0.85938,-1.60938 0.5625,-0.71875 1.35937,-1.125 0.79688,-0.42187 1.79688,-0.42187 0.96875,0 1.67187,0.40625 0.70313,0.39062 1.07813,1.125 0.375,0.73437 0.375,1.73437 0,0.96875 -0.3125,1.875 -0.29688,0.89063 -0.85938,1.59375 -0.5625,0.70313 -1.375,1.125 -0.79687,0.40625 -1.78125,0.40625 z m 0.0312,-1.15625 q 0.73438,0 1.29688,-0.34375 0.5625,-0.34375 0.9375,-0.90625 0.375,-0.5625 0.5625,-1.23437 0.20312,-0.67188 0.20312,-1.32813 0,-0.60937 -0.20312,-1.09375 -0.1875,-0.48437 -0.59375,-0.76562 -0.40625,-0.29688 -1.0625,-0.29688 -0.73438,0 -1.29688,0.34375 -0.54687,0.34375 -0.9375,0.92188 -0.375,0.5625 -0.57812,1.23437 -0.1875,0.67188 -0.1875,1.34375 0,0.89063 0.4375,1.51563 0.4375,0.60937 1.42187,0.60937 z m 15.97974,0.98438 h -1.29687 l 0.96875,-5.76563 h -0.0937 l -4.75,5.76563 h -1.23438 l 1.32813,-8 h 1.28125 l -0.95313,5.78125 h 0.0937 l 4.76563,-5.78125 h 1.21875 z m 5.17059,2.29687 0.57813,-3.48437 h 0.65625 q 0.28125,-0.25 0.5,-0.54688 0.23437,-0.29687 0.4375,-0.70312 0.20312,-0.42188 0.39062,-1.01563 0.1875,-0.59375 0.40625,-1.40625 l 0.76563,-3.14062 h 5.17187 l -1.14062,6.8125 h 1.21875 l -0.5625,3.48437 h -1.28125 l 0.375,-2.29687 h -5.84375 l -0.39063,2.29687 z m 2.6875,-3.48437 h 3.79688 l 0.9375,-5.625 h -2.70313 l -0.5,1.95312 q -0.32812,1.26563 -0.6875,2.20313 -0.34375,0.92187 -0.84375,1.46875 z m 10.49555,1.35937 q -0.98438,0 -1.67188,-0.51562 -0.67187,-0.51563 -0.95312,-1.4375 -0.28125,-0.9375 -0.0625,-2.20313 0.20312,-1.28125 0.78125,-2.1875 0.59375,-0.92187 1.4375,-1.42187 0.85937,-0.5 1.85937,-0.5 0.78125,0 1.1875,0.25 0.42188,0.25 0.60938,0.57812 0.1875,0.32813 0.28125,0.54688 h 0.10937 l 0.21875,-1.28125 h 1.28125 l -1.3125,8 h -1.25 l 0.1875,-1.23438 h -0.14062 q -0.1875,0.23438 -0.5,0.5625 -0.29688,0.32813 -0.79688,0.59375 -0.5,0.25 -1.26562,0.25 z m 0.40625,-1.15625 q 0.73437,0 1.29687,-0.375 0.5625,-0.39062 0.92188,-1.0625 0.375,-0.6875 0.51562,-1.57812 0.15625,-0.89063 0,-1.54688 -0.14062,-0.67187 -0.57812,-1.03125 -0.4375,-0.375 -1.17188,-0.375 -0.76562,0 -1.34375,0.40625 -0.57812,0.39063 -0.9375,1.0625 -0.35937,0.65625 -0.5,1.48438 -0.125,0.84375 0.0156,1.53125 0.14062,0.67187 0.57812,1.07812 0.45313,0.40625 1.20313,0.40625 z m 13.05511,1.15625 q -0.96875,0 -1.67187,-0.40625 -0.6875,-0.40625 -1.0625,-1.14062 -0.375,-0.73438 -0.375,-1.71875 0,-0.95313 0.29687,-1.84375 0.29688,-0.90625 0.85938,-1.60938 0.5625,-0.71875 1.35937,-1.125 0.79688,-0.42187 1.79688,-0.42187 0.59375,0 1.09375,0.15625 0.51562,0.14062 0.89062,0.4375 0.39063,0.29687 0.625,0.71875 0.25,0.40625 0.32813,0.92187 l -1.26563,0.28125 q -0.0312,-0.29687 -0.15625,-0.54687 -0.125,-0.26563 -0.34375,-0.4375 -0.21875,-0.1875 -0.51562,-0.28125 -0.29688,-0.10938 -0.6875,-0.10938 -0.71875,0 -1.28125,0.34375 -0.5625,0.34375 -0.95313,0.92188 -0.375,0.5625 -0.57812,1.23437 -0.1875,0.67188 -0.1875,1.34375 0,0.59375 0.1875,1.07813 0.20312,0.48437 0.60937,0.76562 0.40625,0.28125 1.0625,0.28125 0.40625,0 0.76563,-0.10937 0.375,-0.10938 0.67187,-0.3125 0.3125,-0.21875 0.54688,-0.48438 0.23437,-0.28125 0.35937,-0.59375 l 1.1875,0.40625 q -0.23437,0.53125 -0.60937,0.95313 -0.375,0.40625 -0.84375,0.70312 -0.45313,0.28125 -1,0.4375 -0.53125,0.15625 -1.10938,0.15625 z m 8.17963,0 q -0.98438,0 -1.67188,-0.51562 -0.67187,-0.51563 -0.95312,-1.4375 -0.28125,-0.9375 -0.0625,-2.20313 0.20312,-1.28125 0.78125,-2.1875 0.59375,-0.92187 1.4375,-1.42187 0.85937,-0.5 1.85937,-0.5 0.78125,0 1.1875,0.25 0.42188,0.25 0.60938,0.57812 0.1875,0.32813 0.28125,0.54688 h 0.10937 l 0.21875,-1.28125 h 1.28125 l -1.3125,8 h -1.25 l 0.1875,-1.23438 h -0.14062 q -0.1875,0.23438 -0.5,0.5625 -0.29688,0.32813 -0.79688,0.59375 -0.5,0.25 -1.26562,0.25 z m 0.40625,-1.15625 q 0.73437,0 1.29687,-0.375 0.5625,-0.39062 0.92188,-1.0625 0.375,-0.6875 0.51562,-1.57812 0.15625,-0.89063 0,-1.54688 -0.14062,-0.67187 -0.57812,-1.03125 -0.4375,-0.375 -1.17188,-0.375 -0.76562,0 -1.34375,0.40625 -0.57812,0.39063 -0.9375,1.0625 -0.35937,0.65625 -0.5,1.48438 -0.125,0.84375 0.0156,1.53125 0.14062,0.67187 0.57812,1.07812 0.45313,0.40625 1.20313,0.40625 z m 4.97992,3.54688 1.3125,-4.04688 h 1.46875 l -1.79688,4.04688 z"
       fill-rule="nonzero"
       id="path669" />
    <path
       fill="#7a9080"
       d="m 268.2318,360.9732 -0.20312,1.1875 h -4.39063 l 0.20313,-1.1875 z m -3.54687,-3.29687 -1.3125,8 h -1.29688 l 1.32813,-8 z m 5.07812,0 -1.32812,8 h -1.28125 l 1.32812,-8 z m 3.91183,8.17187 q -0.98437,0 -1.67187,-0.51562 -0.67188,-0.51563 -0.95313,-1.4375 -0.28125,-0.9375 -0.0625,-2.20313 0.20313,-1.28125 0.78125,-2.1875 0.59375,-0.92187 1.4375,-1.42187 0.85938,-0.5 1.85938,-0.5 0.78125,0 1.1875,0.25 0.42187,0.25 0.60937,0.57812 0.1875,0.32813 0.28125,0.54688 h 0.10938 l 0.21875,-1.28125 h 1.28125 l -1.3125,8 h -1.25 l 0.1875,-1.23438 h -0.14063 q -0.1875,0.23438 -0.5,0.5625 -0.29687,0.32813 -0.79687,0.59375 -0.5,0.25 -1.26563,0.25 z m 0.40625,-1.15625 q 0.73438,0 1.29688,-0.375 0.5625,-0.39062 0.92187,-1.0625 0.375,-0.6875 0.51563,-1.57812 0.15625,-0.89063 0,-1.54688 -0.14063,-0.67187 -0.57813,-1.03125 -0.4375,-0.375 -1.17187,-0.375 -0.76563,0 -1.34375,0.40625 -0.57813,0.39063 -0.9375,1.0625 -0.35938,0.65625 -0.5,1.48438 -0.125,0.84375 0.0156,1.53125 0.14063,0.67187 0.57813,1.07812 0.45312,0.40625 1.20312,0.40625 z m 5.62058,0.98438 1.32812,-8 h 3.26563 q 1.32812,0 1.98437,0.59375 0.67188,0.59375 0.5,1.54687 -0.10937,0.70313 -0.60937,1.10938 -0.48438,0.40625 -1.21875,0.54687 0.45312,0.0625 0.84375,0.32813 0.39062,0.25 0.57812,0.6875 0.20313,0.42187 0.10938,1.03125 -0.0937,0.625 -0.5,1.125 -0.40625,0.48437 -1.04688,0.76562 -0.64062,0.26563 -1.45312,0.26563 z m 1.42187,-1.17188 h 2.54688 q 0.57812,0 0.98437,-0.26562 0.42188,-0.28125 0.51563,-0.8125 0.10937,-0.59375 -0.1875,-0.95313 -0.28125,-0.35937 -0.90625,-0.35937 h -2.54688 z m 0.57813,-3.46875 h 2.04687 q 0.70313,0 1.17188,-0.29687 0.46875,-0.29688 0.54687,-0.82813 0.0781,-0.51562 -0.29687,-0.78125 -0.35938,-0.28125 -1.0625,-0.28125 h -2.04688 z m 9.59958,4.8125 q -0.96875,0 -1.67188,-0.40625 -0.6875,-0.40625 -1.0625,-1.14062 -0.375,-0.73438 -0.375,-1.71875 0,-0.95313 0.29688,-1.84375 0.29687,-0.90625 0.85937,-1.60938 0.5625,-0.71875 1.35938,-1.125 0.79687,-0.42187 1.79687,-0.42187 0.59375,0 1.09375,0.15625 0.51563,0.14062 0.89063,0.4375 0.39062,0.29687 0.625,0.71875 0.25,0.40625 0.32812,0.92187 l -1.26562,0.28125 q -0.0312,-0.29687 -0.15625,-0.54687 -0.125,-0.26563 -0.34375,-0.4375 -0.21875,-0.1875 -0.51563,-0.28125 -0.29687,-0.10938 -0.6875,-0.10938 -0.71875,0 -1.28125,0.34375 -0.5625,0.34375 -0.95312,0.92188 -0.375,0.5625 -0.57813,1.23437 -0.1875,0.67188 -0.1875,1.34375 0,0.59375 0.1875,1.07813 0.20313,0.48437 0.60938,0.76562 0.40625,0.28125 1.0625,0.28125 0.40625,0 0.76562,-0.10937 0.375,-0.10938 0.67188,-0.3125 0.3125,-0.21875 0.54687,-0.48438 0.23438,-0.28125 0.35938,-0.59375 l 1.1875,0.40625 q -0.23438,0.53125 -0.60938,0.95313 -0.375,0.40625 -0.84375,0.70312 -0.45312,0.28125 -1,0.4375 -0.53125,0.15625 -1.10937,0.15625 z m 10.88009,-0.17187 h -1.28125 l 1.14063,-6.875 h -1.8125 q -1.03125,0 -1.54688,0.375 -0.5,0.35937 -0.625,1.03125 -0.10937,0.65625 0.28125,1.03125 0.39063,0.35937 1.40625,0.35937 h 2.375 l -0.17187,1.07813 h -2.46875 q -1.57813,0 -2.23438,-0.67188 -0.65625,-0.6875 -0.46875,-1.79687 0.125,-0.75 0.5625,-1.3125 0.4375,-0.57813 1.17188,-0.89063 0.75,-0.32812 1.8125,-0.32812 h 3.17187 z m -5.17187,0 h -1.48438 l 2.82813,-3.625 h 1.4375 z m 7.43176,0 1.32813,-8 h 1.28125 l -0.5625,3.46875 h 0.79687 l 3.42188,-3.46875 h 1.625 l -3.82813,3.875 2.54688,4.125 h -1.625 l -2.03125,-3.34375 h -1.10938 l -0.54687,3.34375 z m 8.12976,-6.95313 0.17188,-1.04687 h 2.79687 l -0.17187,1.04687 z m 3.03125,1.82813 h 2.29688 q 0.9375,0 1.53125,0.32812 0.60937,0.32813 0.84375,0.90625 0.25,0.5625 0.125,1.29688 -0.125,0.73437 -0.5625,1.32812 -0.4375,0.57813 -1.15625,0.92188 -0.70313,0.34375 -1.64063,0.34375 h -3.39062 l 1.32812,-8 h 1.29688 l -1.14063,6.8125 h 2.09375 q 0.73438,0 1.25,-0.375 0.51563,-0.39063 0.60938,-0.96875 0.0937,-0.625 -0.29688,-1.01563 -0.375,-0.39062 -1.09375,-0.39062 h -2.3125 z m 5.02454,7.42187 0.57812,-3.48437 h 0.65625 q 0.28125,-0.25 0.5,-0.54688 0.23438,-0.29687 0.4375,-0.70312 0.20313,-0.42188 0.39063,-1.01563 0.1875,-0.59375 0.40625,-1.40625 l 0.76562,-3.14062 h 5.17188 l -1.14063,6.8125 h 1.21875 l -0.5625,3.48437 h -1.28125 l 0.375,-2.29687 h -5.84375 l -0.39062,2.29687 z m 2.6875,-3.48437 h 3.79687 l 0.9375,-5.625 h -2.70312 l -0.5,1.95312 q -0.32813,1.26563 -0.6875,2.20313 -0.34375,0.92187 -0.84375,1.46875 z m 10.67136,1.35937 q -0.98438,0 -1.6875,-0.375 -0.70313,-0.39062 -1.09375,-1.10937 -0.375,-0.73438 -0.375,-1.75 0,-1.04688 0.32812,-1.96875 0.34375,-0.9375 0.9375,-1.64063 0.60938,-0.70312 1.39063,-1.09375 0.79687,-0.40625 1.70312,-0.40625 0.78125,0 1.34375,0.26563 0.57813,0.26562 0.89063,0.76562 0.3125,0.48438 0.3125,1.15625 0,0.67188 -0.34375,1.15625 -0.34375,0.46875 -1.07813,0.76563 -0.71875,0.29687 -1.85937,0.4375 -1.14063,0.14062 -2.73438,0.14062 l 0.17188,-0.96875 q 1.3125,0 2.1875,-0.0781 0.89062,-0.0781 1.40625,-0.25 0.51562,-0.1875 0.73437,-0.48438 0.23438,-0.29687 0.23438,-0.75 0,-0.45312 -0.39063,-0.73437 -0.375,-0.28125 -1,-0.28125 -0.8125,0 -1.375,0.39062 -0.5625,0.39063 -0.92187,1 -0.35938,0.60938 -0.53125,1.29688 -0.17188,0.6875 -0.17188,1.28125 0,0.59375 0.1875,1.0625 0.20313,0.46875 0.64063,0.75 0.4375,0.28125 1.17187,0.28125 0.76563,0 1.35938,-0.32813 0.60937,-0.32812 0.90625,-0.90625 l 1.20312,0.32813 q -0.45312,0.95312 -1.40625,1.5 -0.95312,0.54687 -2.14062,0.54687 z"
       fill-rule="nonzero"
       id="path671" />
  </g>
</svg>
