<?xml version="1.0" encoding="UTF-8" standalone="no"?>
<svg
   width="1920"
   height="1080"
   viewBox="0 0 1920 1080"
   version="1.1"
   id="svg1467"
   sodipodi:docname="slide_02.svg"
   xml:space="preserve"
   inkscape:version="1.2.2 (b0a8486541, 2022-12-01)"
   xmlns:inkscape="http://www.inkscape.org/namespaces/inkscape"
   xmlns:sodipodi="http://sodipodi.sourceforge.net/DTD/sodipodi-0.dtd"
   xmlns="http://www.w3.org/2000/svg"
   xmlns:svg="http://www.w3.org/2000/svg"><sodipodi:namedview
     id="namedview1469"
     pagecolor="#ffffff"
     bordercolor="#000000"
     borderopacity="0.25"
     inkscape:showpageshadow="2"
     inkscape:pageopacity="0.0"
     inkscape:pagecheckerboard="0"
     inkscape:deskcolor="#d1d1d1"
     showgrid="false"
     inkscape:zoom="0.48245307"
     inkscape:cx="1086.116"
     inkscape:cy="861.22367"
     inkscape:window-width="1854"
     inkscape:window-height="1011"
     inkscape:window-x="0"
     inkscape:window-y="0"
     inkscape:window-maximized="1"
     inkscape:current-layer="svg1467" /><defs
     id="defs1413"><linearGradient
       id="hero-bg"
       x1="0%"
       y1="0%"
       x2="100%"
       y2="100%"><stop
         offset="0%"
         stop-color="#0d2318"
         id="stop1398" /><stop
         offset="100%"
         stop-color="#132e20"
         id="stop1400" /></linearGradient><linearGradient
       id="leaf"
       x1="0%"
       y1="0%"
       x2="100%"
       y2="100%"><stop
         offset="0%"
         stop-color="#5DCAA5"
         id="stop1403" /><stop
         offset="100%"
         stop-color="#3DA882"
         id="stop1405" /></linearGradient><linearGradient
       id="pill-fill"
       x1="0"
       y1="0"
       x2="1"
       y2="1"><stop
         offset="0%"
         stop-color="#12442f"
         id="stop1408" /><stop
         offset="100%"
         stop-color="#1b5036"
         id="stop1410" /></linearGradient></defs><style
     id="style1415">
    text, tspan { font-family: 'Inter', sans-serif; }
    .title { font-size: 72px; font-weight: bold; fill: #ffffff; }
    .subtitle { font-size: 38px; font-weight: 600; fill: #9fe1cb; }
    .label { font-size: 28px; font-weight: 500; fill: #888888; letter-spacing: 2px; text-transform: uppercase; }
    .text-main { font-size: 36px; font-weight: bold; fill: #aeaeae; }
    .text-body { font-size: 28px; fill: #888888; }
    .stat-val { font-size: 120px; font-weight: bold; fill: #5DCAA5; }
    .stat-label { font-size: 32px; font-weight: 600; fill: #dddddd; }
  </style><rect
     width="1920"
     height="1080"
     fill="#111111"
     id="rect1417" /><g
     id="g13235"
     transform="translate(24.070063,21.703713)"><g
       id="group-persona-hobbyist"
       inkscape:label="Поливане на сляпо"
       transform="matrix(8.2269636,0,0,8.2269636,200.8227,350.72412)"><rect
         id="persona-hobbyist-card"
         inkscape:label="Card background"
         x="0"
         y="0.80206645"
         width="57.008652"
         height="66.743507"
         rx="4"
         ry="4"
         fill="#161616"
         stroke="#333333"
         stroke-width="0.2" /><circle
         id="persona-hobbyist-avatar-bg"
         inkscape:label="Avatar background"
         cx="14"
         cy="14"
         r="8"
         fill="#2a2210"
         style="fill:#2d1a29;fill-opacity:1" /><g
         style="fill:#8d5886;fill-opacity:1"
         id="g3751"
         transform="matrix(0.00897112,0,0,0.00897112,9.6938624,18.306138)"><path
           d="M 451.5,-491.5 Q 440,-503 440,-520 q 0,-17 11.5,-28.5 11.5,-11.5 28.5,-11.5 17,0 28.5,11.5 11.5,11.5 11.5,28.5 0,17 -11.5,28.5 -11.5,11.5 -28.5,11.5 -17,0 -28.5,-11.5 z m 0,-160 Q 440,-663 440,-680 q 0,-17 11.5,-28.5 11.5,-11.5 28.5,-11.5 17,0 28.5,11.5 11.5,11.5 11.5,28.5 0,17 -11.5,28.5 -11.5,11.5 -28.5,11.5 -17,0 -28.5,-11.5 z m 0,-160 Q 440,-823 440,-840 q 0,-17 11.5,-28.5 11.5,-11.5 28.5,-11.5 17,0 28.5,11.5 11.5,11.5 11.5,28.5 0,17 -11.5,28.5 -11.5,11.5 -28.5,11.5 -17,0 -28.5,-11.5 z m 120,400 Q 560,-423 560,-440 q 0,-17 11.5,-28.5 11.5,-11.5 28.5,-11.5 17,0 28.5,11.5 11.5,11.5 11.5,28.5 0,17 -11.5,28.5 -11.5,11.5 -28.5,11.5 -17,0 -28.5,-11.5 z m 113,-114 Q 673,-537 673,-554 q 0,-17 11.5,-28.5 11.5,-11.5 28.5,-11.5 17,0 28.5,11.5 11.5,11.5 11.5,28.5 0,17 -11.5,28.5 -11.5,11.5 -28.5,11.5 -17,0 -28.5,-11.5 z m 113,-112 Q 786,-649 786,-666 q 0,-17 11.5,-28.5 11.5,-11.5 28.5,-11.5 17,0 28.5,11.5 11.5,11.5 11.5,28.5 0,17 -11.5,28.5 -11.5,11.5 -28.5,11.5 -17,0 -28.5,-11.5 z m -466,226 Q 320,-423 320,-440 q 0,-17 11.5,-28.5 11.5,-11.5 28.5,-11.5 17,0 28.5,11.5 11.5,11.5 11.5,28.5 0,17 -11.5,28.5 -11.5,11.5 -28.5,11.5 -17,0 -28.5,-11.5 z m -113,-114 Q 207,-537 207,-554 q 0,-17 11.5,-28.5 11.5,-11.5 28.5,-11.5 17,0 28.5,11.5 11.5,11.5 11.5,28.5 0,17 -11.5,28.5 -11.5,11.5 -28.5,11.5 -17,0 -28.5,-11.5 z m -113,-112 Q 94,-649 94,-666 q 0,-17 11.5,-28.5 11.5,-11.5 28.5,-11.5 17,0 28.5,11.5 11.5,11.5 11.5,28.5 0,17 -11.5,28.5 -11.5,11.5 -28.5,11.5 -17,0 -28.5,-11.5 z M 440,-80 V -240 H 280 v -80 h 400 v 80 H 520 v 160 z"
           id="path3742"
           style="fill:#8d5886;fill-opacity:1" /></g><text
         id="persona-hobbyist-name"
         inkscape:label="Name - Enthusiast"
         x="6"
         y="30"
         font-size="4px"
         font-weight="500"
         fill="#dddddd"
         style="font-family:Inter, sans-serif">Поливане на сляпо</text><g
         id="group-hobbyist-desc"
         inkscape:label="Description - Enthusiast"><text
           xml:space="preserve"
           style="font-size:3.2px;font-family:Inter, sans-serif;fill:#888888;fill-opacity:1;stroke:none"
           x="6"
           y="36"
           id="persona-hobbyist-desc1"><tspan
             sodipodi:role="line"
             id="tspan-hb1"
             style="font-size:3.2px;fill:#888888;fill-opacity:1;stroke:none"
             x="6"
             y="36">Без данни за влажността</tspan><tspan
             sodipodi:role="line"
             style="font-size:3.2px;fill:#888888;fill-opacity:1;stroke:none"
             x="6"
             y="40"
             id="tspan2336">фермерите поливат по навик,</tspan><tspan
             sodipodi:role="line"
             style="font-size:3.2px;fill:#888888;fill-opacity:1;stroke:none"
             x="6"
             y="44"
             id="tspan2338">или твърде много, или</tspan><tspan
             sodipodi:role="line"
             style="font-size:3.2px;fill:#888888;fill-opacity:1;stroke:none"
             x="6"
             y="48"
             id="tspan2340">твърде малко</tspan></text></g></g><g
       id="group-persona-hobbyist-9"
       inkscape:label="Неблагоприятни условия"
       transform="matrix(8.2269636,0,0,8.2269636,725.49595,350.77412)"><rect
         id="persona-hobbyist-card-3"
         inkscape:label="Card background"
         x="0"
         y="0.80206645"
         width="57.008652"
         height="66.743507"
         rx="4"
         ry="4"
         fill="#161616"
         stroke="#333333"
         stroke-width="0.2" /><circle
         id="persona-hobbyist-avatar-bg-6"
         inkscape:label="Avatar background"
         cx="14"
         cy="14"
         r="8"
         fill="#2a2210"
         style="fill:#0d2318;fill-opacity:1" /><g
         style="fill:#2ca074;fill-opacity:1"
         id="g4941"
         transform="matrix(0.00942011,0,0,0.00942011,9.4661974,18.521653)"><path
           d="m 166.85481,-166.90441 c -40.49993,-40.49993 -60.74989,-89.48061 -60.74989,-146.94205 0,-33.2307 7.26922,-64.21141 21.80765,-92.94213 14.53844,-28.73072 34.96148,-53.13453 61.26912,-73.21141 v -249.23032 c 0,-34.61532 12.11537,-64.03835 36.34609,-88.26907 24.23072,-24.23072 53.65375,-36.34609 88.26907,-36.34609 34.61532,0 64.03835,12.11537 88.26907,36.34609 24.23072,24.23072 36.34609,53.65375 36.34609,88.26907 V -480 c 26.30764,20.07688 46.73068,44.48069 61.26912,73.21141 14.53843,28.73072 21.80765,59.71143 21.80765,92.94213 0,57.46144 -20.24996,106.44212 -60.74989,146.94205 -40.49992,40.49992 -89.48061,60.74989 -146.94204,60.74989 -57.46143,0 -106.44211,-20.24997 -146.94204,-60.74989 z m 22.32688,-146.94205 h 249.23032 c 0,-20.07688 -4.32692,-38.76915 -12.98075,-56.07682 -8.65382,-17.30766 -20.94227,-31.8461 -36.86531,-43.6153 l -33.23071,-24.92303 v -290.76871 c 0,-11.7692 -3.98076,-21.63457 -11.94229,-29.5961 -7.96153,-7.96152 -17.82689,-11.94228 -29.5961,-11.94228 -11.76921,0 -21.63457,3.98076 -29.5961,11.94228 -7.96153,7.96153 -11.94229,17.8269 -11.94229,29.5961 v 290.76871 l -33.2307,24.92303 c -15.92305,11.7692 -28.2115,26.30764 -36.86532,43.6153 -8.65383,17.30767 -12.98075,35.99994 -12.98075,56.07682 z m 480.3702,166.15355 v -506.76831 l -45.69222,45.69222 -58.15374,-58.15374 145.38435,-145.38435 145.38435,145.38435 -59.1922,58.15374 -44.65377,-44.65376 v 505.72985 z"
           id="path4932"
           sodipodi:nodetypes="ssscssssscsssssccsccsssssccsccccccccccc"
           style="fill:#2ca074;fill-opacity:1;stroke-width:1.03846" /></g><text
         id="persona-hobbyist-name-2"
         inkscape:label="Name - Enthusiast"
         x="6"
         y="30"
         font-size="4px"
         font-weight="500"
         fill="#dddddd"
         style="font-family:Inter, sans-serif">Неблагоприятни условия</text><g
         id="group-hobbyist-desc-6"
         inkscape:label="Description - Enthusiast"><text
           xml:space="preserve"
           style="font-size:3.2px;font-family:Inter, sans-serif;fill:#888888;fill-opacity:1;stroke:none"
           x="6"
           y="36"
           id="persona-hobbyist-desc1-1"><tspan
             sodipodi:role="line"
             style="font-size:3.2px;fill:#888888;fill-opacity:1;stroke:none"
             x="6"
             y="36"
             id="tspan2616">Температурен или воден</tspan><tspan
             sodipodi:role="line"
             style="font-size:3.2px;fill:#888888;fill-opacity:1;stroke:none"
             x="6"
             y="40"
             id="tspan2620">стрес остава неоткрит до</tspan><tspan
             sodipodi:role="line"
             style="font-size:3.2px;fill:#888888;fill-opacity:1;stroke:none"
             x="6"
             y="44"
             id="tspan2622">видими щети когато вече</tspan><tspan
             sodipodi:role="line"
             style="font-size:3.2px;fill:#888888;fill-opacity:1;stroke:none"
             x="6"
             y="48"
             id="tspan2624">е късно</tspan></text></g></g><g
       id="group-persona-hobbyist-9-0"
       inkscape:label="Скъпи системи"
       transform="matrix(8.2269636,0,0,8.2269636,1250.1697,350.72412)"><rect
         id="persona-hobbyist-card-3-2"
         inkscape:label="Card background"
         x="0"
         y="0.80206645"
         width="57.008652"
         height="66.743507"
         rx="4"
         ry="4"
         fill="#161616"
         stroke="#333333"
         stroke-width="0.2" /><circle
         id="persona-hobbyist-avatar-bg-6-3"
         inkscape:label="Avatar background"
         cx="14"
         cy="14"
         r="8"
         fill="#2a2210"
         style="fill:#2a2210;fill-opacity:1" /><g
         style="fill:#866a27;fill-opacity:1"
         id="g10027"
         transform="matrix(0.00879637,0,0,0.00879637,9.7777424,18.222258)"><path
           d="m 560,-440 q -50,0 -85,-35 -35,-35 -35,-85 0,-50 35,-85 35,-35 85,-35 50,0 85,35 35,35 35,85 0,50 -35,85 -35,35 -85,35 z m -280,120 q -33,0 -56.5,-23.5 Q 200,-367 200,-400 v -320 q 0,-33 23.5,-56.5 Q 247,-800 280,-800 h 560 q 33,0 56.5,23.5 23.5,23.5 23.5,56.5 v 320 q 0,33 -23.5,56.5 Q 873,-320 840,-320 Z m 80,-80 h 400 q 0,-33 23.5,-56.5 Q 807,-480 840,-480 v -160 q -33,0 -56.5,-23.5 Q 760,-687 760,-720 H 360 q 0,33 -23.5,56.5 Q 313,-640 280,-640 v 160 q 33,0 56.5,23.5 23.5,23.5 23.5,56.5 z m 440,240 H 120 Q 87,-160 63.5,-183.5 40,-207 40,-240 v -440 h 80 v 440 H 800 Z M 280,-400 v -320 z"
           id="path10018"
           style="fill:#866a27;fill-opacity:1" /></g><text
         id="persona-hobbyist-name-2-9"
         inkscape:label="Name - Enthusiast"
         x="6"
         y="30"
         font-size="4px"
         font-weight="500"
         fill="#dddddd"
         style="font-family:Inter, sans-serif">Скъпи системи</text><g
         id="group-hobbyist-desc-6-2"
         inkscape:label="Description - Enthusiast"><text
           xml:space="preserve"
           style="font-size:3.2px;font-family:Inter, sans-serif;fill:#888888;fill-opacity:1;stroke:none"
           x="6"
           y="36"
           id="persona-hobbyist-desc1-1-2"><tspan
             sodipodi:role="line"
             style="font-size:3.2px;fill:#888888;fill-opacity:1;stroke:none"
             x="6"
             y="36"
             id="tspan2624-3">Съществуващите решения за</tspan><tspan
             sodipodi:role="line"
             style="font-size:3.2px;fill:#888888;fill-opacity:1;stroke:none"
             x="6"
             y="40"
             id="tspan3728">обикновения фермер изискват</tspan><tspan
             sodipodi:role="line"
             style="font-size:3.2px;fill:#888888;fill-opacity:1;stroke:none"
             x="6"
             y="44"
             id="tspan3730">Wi-Fi и постоянно захранване</tspan><tspan
             sodipodi:role="line"
             style="font-size:3.2px;fill:#888888;fill-opacity:1;stroke:none"
             x="6"
             y="48"
             id="tspan3732">- неизползваеми на някои</tspan><tspan
             sodipodi:role="line"
             style="font-size:3.2px;fill:#888888;fill-opacity:1;stroke:none"
             x="6"
             y="52"
             id="tspan3736">отдалечени места. А тези</tspan><tspan
             sodipodi:role="line"
             style="font-size:3.2px;fill:#888888;fill-opacity:1;stroke:none"
             x="6"
             y="56"
             id="tspan3740">които не изискват са скъпи</tspan><tspan
             sodipodi:role="line"
             style="font-size:3.2px;fill:#888888;fill-opacity:1;stroke:none"
             x="6"
             y="60"
             id="tspan3726" /></text></g></g><text
       x="150"
       y="150"
       class="label"
       id="text1421">ПРОБЛЕМЪТ</text><text
       x="150"
       y="240"
       class="title"
       id="text1423">Фермерите работят сляпо</text></g></svg>
