<?xml version="1.0" encoding="UTF-8" standalone="no"?>
<svg
   width="1920"
   height="1080"
   viewBox="0 0 1920 1080"
   version="1.1"
   id="svg17551"
   sodipodi:docname="slide_06.svg"
   inkscape:version="1.2.2 (b0a8486541, 2022-12-01)"
   xmlns:inkscape="http://www.inkscape.org/namespaces/inkscape"
   xmlns:sodipodi="http://sodipodi.sourceforge.net/DTD/sodipodi-0.dtd"
   xmlns="http://www.w3.org/2000/svg"
   xmlns:svg="http://www.w3.org/2000/svg">
  <sodipodi:namedview
     id="namedview17553"
     pagecolor="#ffffff"
     bordercolor="#000000"
     borderopacity="0.25"
     inkscape:showpageshadow="2"
     inkscape:pageopacity="0.0"
     inkscape:pagecheckerboard="0"
     inkscape:deskcolor="#d1d1d1"
     showgrid="false"
     inkscape:zoom="0.68229167"
     inkscape:cx="905.77099"
     inkscape:cy="541.55725"
     inkscape:window-width="1854"
     inkscape:window-height="1011"
     inkscape:window-x="0"
     inkscape:window-y="0"
     inkscape:window-maximized="1"
     inkscape:current-layer="svg17551" />
  <defs
     id="defs17475">
    <linearGradient
       id="hero-bg"
       x1="0%"
       y1="0%"
       x2="100%"
       y2="100%">
      <stop
         offset="0%"
         stop-color="#0d2318"
         id="stop17460" />
      <stop
         offset="100%"
         stop-color="#132e20"
         id="stop17462" />
    </linearGradient>
    <linearGradient
       id="leaf"
       x1="0%"
       y1="0%"
       x2="100%"
       y2="100%">
      <stop
         offset="0%"
         stop-color="#5DCAA5"
         id="stop17465" />
      <stop
         offset="100%"
         stop-color="#3DA882"
         id="stop17467" />
    </linearGradient>
    <linearGradient
       id="pill-fill"
       x1="0"
       y1="0"
       x2="1"
       y2="1">
      <stop
         offset="0%"
         stop-color="#12442f"
         id="stop17470" />
      <stop
         offset="100%"
         stop-color="#1b5036"
         id="stop17472" />
    </linearGradient>
  </defs>
  <style
     id="style17477">
    text, tspan { font-family: 'Inter', sans-serif; }
    .title { font-size: 72px; font-weight: bold; fill: #ffffff; }
    .subtitle { font-size: 38px; font-weight: 600; fill: #9fe1cb; }
    .label { font-size: 28px; font-weight: 500; fill: #888888; letter-spacing: 2px; text-transform: uppercase; }
    .text-main { font-size: 36px; font-weight: bold; fill: #aeaeae; }
    .text-body { font-size: 28px; fill: #888888; }
    .stat-val { font-size: 120px; font-weight: bold; fill: #5DCAA5; }
    .stat-label { font-size: 32px; font-weight: 600; fill: #dddddd; }
  </style>
  <rect
     width="1920"
     height="1080"
     fill="#111111"
     id="rect17479" />
  <text
     x="150"
     y="315.68542"
     class="label"
     id="text17483">КАК СЕ ИЗПОЛЗВА</text>
  <text
     x="150"
     y="405.68542"
     class="title"
     id="text17485">Инсталацията е невероятно лесна</text>
  <text
     x="150"
     y="465.68542"
     class="subtitle"
     id="text17487">След това единственото нещо за което трябва да се грижиш е реколтата</text>
  <g
     id="group-how-to-setup"
     inkscape:label="How To Setup Section"
     transform="matrix(6.3233198,0,0,6.3233198,20.987008,-1428.7805)">
      
      
      <g
   id="setup-step-1"
   transform="translate(20,308)">
         <rect
   width="60"
   height="42"
   rx="4"
   fill="#161616"
   stroke="#333333"
   stroke-width="0.2"
   id="rect2"
   x="0"
   y="0" />

         <circle
   cx="6"
   cy="6"
   r="3.5"
   fill="#5DCAA5"
   id="circle1"
   style="fill:#0d2318;fill-opacity:1" />

         <text
   x="5.836298"
   y="7.4000001"
   font-size="4px"
   font-weight="bold"
   font-family="'Inter', sans-serif"
   id="text4"
   text-anchor="middle"
   style="font-family:Inter, sans-serif;fill:#2ca074;fill-opacity:1">1</text>

         <circle
   cx="30"
   cy="14"
   r="8"
   fill="#15202b"
   id="circle4" />
<g
   style="fill:#2f7fb1;fill-opacity:1"
   id="g11"
   transform="matrix(0.00751657,0,0,0.00751657,26.241716,17.607953)">
  <path
     d="M 280,-40 Q 247,-40 223.5,-63.5 200,-87 200,-120 v -720 q 0,-33 23.5,-56.5 Q 247,-920 280,-920 h 400 q 33,0 56.5,23.5 23.5,23.5 23.5,56.5 v 124 q 18,7 29,22 11,15 11,34 v 80 q 0,19 -11,34 -11,15 -29,22 v 404 q 0,33 -23.5,56.5 Q 713,-40 680,-40 Z m 0,-80 H 680 V -840 H 280 Z m 0,0 v -720 z m 200,-200 160,-160 -56,-56 -64,62 v -166 h -80 v 166 l -64,-62 -56,56 z"
     id="path1-1"
     style="fill:#2f7fb1;fill-opacity:1" />
</g>

         <text
   xml:space="preserve"
   style="font-size:4.10245px;font-family:Inter, sans-serif;text-anchor:middle;fill:#dddddd;stroke:none;stroke-width:1.17213"
   x="29.988234"
   y="29.828718"
   id="text6"><tspan
     sodipodi:role="line"
     x="29.988234"
     y="29.828718"
     style="stroke:none;stroke-width:1.17213"
     id="tspan6">Изтеглете</tspan></text>

         <text
   xml:space="preserve"
   style="font-size:4.10245px;font-family:Inter, sans-serif;text-anchor:middle;fill:#dddddd;stroke:none;stroke-width:1.17213"
   x="29.988234"
   y="35.103294"
   id="text7"><tspan
     sodipodi:role="line"
     x="29.988235"
     y="35.103294"
     style="stroke:none;stroke-width:1.17213"
     id="tspan7">мобилното приложение</tspan></text>

      </g>

      
      <g
   id="setup-step-2"
   transform="translate(85.666667,308)">
         <rect
   width="60"
   height="42"
   rx="4"
   fill="#161616"
   stroke="#333333"
   stroke-width="0.2"
   id="rect7"
   x="0"
   y="0" />

         <circle
   cx="6"
   cy="6"
   r="3.5"
   fill="#5DCAA5"
   id="circle2"
   style="fill:#0d2318;fill-opacity:1" />

         <text
   x="6"
   y="7.4000001"
   font-size="4px"
   font-weight="bold"
   font-family="'Inter', sans-serif"
   id="text8"
   text-anchor="middle"
   style="font-family:Inter, sans-serif;fill:#2ca074;fill-opacity:1">2</text>

         <circle
   cx="30"
   cy="14"
   r="8"
   fill="#2d1a29"
   id="circle8" />
<g
   style="fill:#8d5886;fill-opacity:1"
   id="g12"
   transform="matrix(0.0079375,0,0,0.0079375,26.190002,17.809998)">
  <path
     d="m 80,-680 v -200 h 200 v 80 H 160 v 120 z m 0,600 v -200 h 80 v 120 h 120 v 80 z m 600,0 v -80 h 120 v -120 h 80 V -80 Z M 800,-680 V -800 H 680 v -80 h 200 v 200 z m -100,420 h 60 v 60 h -60 z m 0,-120 h 60 v 60 h -60 z m -60,60 h 60 v 60 h -60 z m -60,60 h 60 v 60 h -60 z m -60,-60 h 60 v 60 h -60 z m 120,-120 h 60 v 60 h -60 z m -60,60 h 60 v 60 h -60 z m -60,-60 h 60 v 60 h -60 z m 240,-320 v 240 H 520 v -240 z m -320,320 v 240 H 200 v -240 z m 0,-320 v 240 H 200 v -240 z m -60,500 V -380 H 260 v 120 z m 0,-320 V -700 H 260 v 120 z m 320,0 V -700 H 580 v 120 z"
     id="path1-85"
     style="fill:#8d5886;fill-opacity:1" />
</g>

         <text
   xml:space="preserve"
   style="font-size:3.63546px;font-family:Inter, sans-serif;text-anchor:middle;fill:#dddddd;stroke:none;stroke-width:1.13608"
   x="29.991707"
   y="30.39784"
   id="text10"><tspan
     sodipodi:role="line"
     x="30.446138"
     y="30.39784"
     style="stroke:none;stroke-width:1.13608"
     id="tspan8">Сканирайте QR кода на  </tspan></text>

         <text
   xml:space="preserve"
   style="font-size:3.63546px;font-family:Inter, sans-serif;text-anchor:middle;fill:#dddddd;stroke:none;stroke-width:1.13608"
   x="29.991707"
   y="35.510201"
   id="text11"><tspan
     sodipodi:role="line"
     x="29.991707"
     y="35.510201"
     style="stroke:none;stroke-width:1.13608"
     id="tspan10">устройството в приложението</tspan></text>

         
      </g>

      
      <g
   id="setup-step-3"
   transform="translate(151.33333,308)">
         <rect
   width="60"
   height="42"
   rx="4"
   fill="#161616"
   stroke="#333333"
   stroke-width="0.2"
   id="rect12"
   x="0"
   y="0" />

         <circle
   cx="6"
   cy="6"
   r="3.5"
   fill="#5DCAA5"
   id="circle3"
   style="fill:#0d2318;fill-opacity:1" />

         <text
   x="6"
   y="7.4000001"
   font-size="4px"
   font-weight="bold"
   font-family="'Inter', sans-serif"
   id="text13"
   text-anchor="middle"
   style="font-family:Inter, sans-serif;fill:#2ca074;fill-opacity:1">3</text>
<circle
   cx="30"
   cy="14"
   r="8"
   fill="#2a2210"
   id="circle13" />
<g
   style="fill:#e3e3e3"
   id="g13"
   transform="matrix(0.00661458,0,0,0.00661458,26.825002,17.174998)">
  <path
     d="M -34.90491,-68.076072 V -171.05705 h 296.07032 q -28.31977,-109.4173 -107.4864,-188.58393 -79.166627,-79.16663 -188.58392,-107.4864 25.7452453,-6.43631 50.84686,-9.65446 Q 41.043564,-480 68.076072,-480 240.56922,-480 360.28461,-360.28461 480,-240.56922 480,-68.076072 Z m 617.88589,0 q 0,-54.065018 -11.58536,-107.486398 -11.58536,-53.42139 -33.46882,-102.33735 54.06502,-91.39562 147.39153,-146.7479 Q 778.64485,-480 891.92393,-480 q 27.03251,0 52.13412,3.21816 25.10161,3.21815 50.84686,9.65446 -109.41729,28.31977 -187.94029,107.4864 -78.523,79.16663 -108.13003,188.58393 H 994.90491 V -68.076072 Z M 480,-375.73176 q 0,-83.67204 30.89429,-157.04599 30.8943,-73.37395 84.95931,-129.36986 54.06502,-55.99591 126.79534,-89.46473 72.73032,-33.46882 155.1151,-36.04334 -72.08668,45.05418 -126.1517,110.70455 -54.06502,65.65038 -83.67205,146.7479 -56.63954,27.03251 -103.62461,66.29401 -46.98507,39.2615 -84.31568,88.17746 z m -93.97015,-96.54467 q -15.44714,-11.58536 -30.89429,-21.88346 -15.44715,-10.29809 -32.18156,-20.59619 0,-7.72358 1.28726,-16.09078 1.28727,-8.3672 1.28727,-16.09078 0,-97.83193 -30.8943,-185.36577 -30.89429,-87.53383 -87.53383,-159.62052 84.95931,34.75608 147.39153,99.76283 62.43222,65.00674 95.90104,149.96605 -23.17072,38.61787 -39.90513,81.74116 -16.73441,43.12328 -24.45799,88.17746 z"
     id="path1-948"
     style="fill:#866a27;fill-opacity:1;stroke-width:1.28726" />
</g>

         
         <text
   xml:space="preserve"
   style="font-size:3.67868px;font-family:Inter, sans-serif;text-anchor:middle;fill:#dddddd;stroke:none;stroke-width:1.14959"
   x="30.006311"
   y="30.376678"
   id="text14"><tspan
     sodipodi:role="line"
     x="30.006311"
     y="30.376678"
     style="stroke:none;stroke-width:1.14959"
     id="tspan13">Поставете Soilix в земята &amp;</tspan></text>

         <text
   xml:space="preserve"
   style="font-size:3.67868px;font-family:Inter, sans-serif;text-anchor:middle;fill:#dddddd;stroke:none;stroke-width:1.14959"
   x="30.006311"
   y="35.549816"
   id="text15"><tspan
     sodipodi:role="line"
     x="30.006311"
     y="35.549816"
     style="stroke:none;stroke-width:1.14959"
     id="tspan14">добавете соларния панел</tspan></text>

         
      </g>

      
      <g
   id="setup-step-4"
   transform="translate(217,308)">
         <rect
   width="60"
   height="42"
   rx="4"
   fill="#161616"
   stroke="#333333"
   stroke-width="0.2"
   id="rect16"
   x="0"
   y="0" />

         <circle
   cx="6"
   cy="6"
   r="3.5"
   fill="#5DCAA5"
   id="circle5"
   style="fill:#0d2318;fill-opacity:1" />

         <text
   x="6"
   y="7.4000001"
   font-size="4px"
   font-weight="bold"
   font-family="'Inter', sans-serif"
   id="text17"
   text-anchor="middle"
   style="font-family:Inter, sans-serif;fill:#2ca074;fill-opacity:1">4</text>

         <circle
   cx="30"
   cy="14"
   r="8"
   fill="#122b27"
   id="circle17"
   style="fill:#0d2318;fill-opacity:1" />
<g
   style="fill:#2ca074;fill-opacity:1"
   id="g16"
   transform="matrix(0.0082641,0,0,0.0082641,26.033231,17.975033)">
  <path
     d="M 80,-560 Q 80,-660 124.5,-743.5 169,-827 244,-882 l 47,64 q -60,44 -95.5,111 -35.5,67 -35.5,147 z m 720,0 q 0,-80 -35.5,-147 Q 729,-774 669,-818 l 47,-64 q 75,55 119.5,138.5 Q 880,-660 880,-560 Z m -640,360 v -80 h 80 v -280 q 0,-83 50,-147.5 50,-64.5 130,-84.5 v -28 q 0,-25 17.5,-42.5 17.5,-17.5 42.5,-17.5 25,0 42.5,17.5 17.5,17.5 17.5,42.5 v 28 q 80,20 130,84.5 50,64.5 50,147.5 v 280 h 80 v 80 z m 320,-300 z m 0,420 q -33,0 -56.5,-23.5 Q 400,-127 400,-160 h 160 q 0,33 -23.5,56.5 Q 513,-80 480,-80 Z M 320,-280 h 320 v -280 q 0,-66 -47,-113 -47,-47 -113,-47 -66,0 -113,47 -47,47 -47,113 z"
     id="path1-92"
     style="fill:#2ca074;fill-opacity:1" />
</g>

         <text
   xml:space="preserve"
   style="font-size:3.57716px;font-family:Inter, sans-serif;text-anchor:middle;fill:#dddddd;stroke:none;stroke-width:1.11786"
   x="30.002855"
   y="30.811462"
   id="text18"><tspan
     sodipodi:role="line"
     x="30.002855"
     y="30.811462"
     style="stroke:none;stroke-width:1.11786"
     id="tspan17">Получавате известия</tspan></text>

         <text
   xml:space="preserve"
   style="font-size:3.57716px;font-family:Inter, sans-serif;text-anchor:middle;fill:#dddddd;stroke:none;stroke-width:1.11786"
   x="30.002855"
   y="35.84185"
   id="text19"><tspan
     sodipodi:role="line"
     x="30.002855"
     y="35.84185"
     style="stroke:none;stroke-width:1.11786"
     id="tspan18">и оставате спокойни</tspan></text>

      </g>

    </g>
</svg>
